<?xml version="1.0" standalone="no"?>
<!DOCTYPE svg PUBLIC "-//W3C//DTD SVG 1.1//EN" "http://www.w3.org/Graphics/SVG/1.1/DTD/svg11.dtd" >
<svg>
<metadata>
Created by FontForge 20090622 at Mon May  6 19:33:29 2019
 By deploy user
Copyright (c) 2009-2011 by Accademia di Belle Arti di Urbino and students of MA course of Visual design. Some rights reserved.
</metadata>
<defs>
<font id="TitilliumText-BoldItalic" horiz-adv-x="560" >
  <font-face 
    font-family="TitilliumText"
    font-weight="700"
    font-style="italic"
    font-stretch="normal"
    units-per-em="1000"
    panose-1="0 0 0 0 0 0 0 0 0 0"
    ascent="750"
    descent="-250"
    x-height="500"
    cap-height="683"
    bbox="-157 -302 1091 1120"
    underline-thickness="30"
    underline-position="-70"
    slope="-13"
    unicode-range="U+000D-U+F6C3"
  />
<missing-glyph horiz-adv-x="223" 
 />
    <glyph glyph-name=".notdef" horiz-adv-x="223" 
 />
    <glyph glyph-name=".null" horiz-adv-x="0" 
 />
    <glyph glyph-name=".null" horiz-adv-x="0" 
 />
    <glyph glyph-name="nonmarkingreturn" horiz-adv-x="333" 
 />
    <glyph glyph-name="CR" unicode="&#xd;" horiz-adv-x="223" 
 />
    <glyph glyph-name="DLE" horiz-adv-x="0" 
 />
    <glyph glyph-name="space" unicode=" " horiz-adv-x="220" 
 />
    <glyph glyph-name="exclam" unicode="!" horiz-adv-x="170" 
d="M86 251l97 449h127l-113 -449h-111zM25 0l33 142h121l-33 -142h-121z" />
    <glyph glyph-name="quotedbl" unicode="&#x22;" horiz-adv-x="308" 
d="M244 444h-103l57 245h111zM366 444h-103l57 245h111z" />
    <glyph glyph-name="numbersign" unicode="#" 
d="M578 169h-100l-42 -169h-104l42 169h-116l-42 -169h-104l42 169h-100l25 100h100l30 124h-100l25 100h100l42 168h104l-42 -168h117l42 168h104l-42 -168h99l-25 -100h-99l-31 -124h100zM399 269l31 124h-117l-30 -124h116z" />
    <glyph glyph-name="dollar" unicode="$" 
d="M608 639l-21 -86q-42 7 -88 12l-82 -187q71 -32 95 -65t24 -96q0 -109 -66.5 -169t-179.5 -60q-15 0 -43 2l-47 -109h-76l52 120q-23 4 -44.5 10t-31.5 10l-11 4l21 86q53 -10 107 -15l88 203q-64 28 -92 62.5t-28 95.5q0 95 62 155.5t165 60.5q27 0 54 -3l45 104h79
l-51 -116zM416 204q0 23 -9.5 36.5t-37.5 28.5l-77 -177q124 2 124 112zM305 471q0 -24 9.5 -37t37.5 -27l71 164h-9q-51 0 -80 -26.5t-29 -73.5z" />
    <glyph glyph-name="percent" unicode="%" 
d="M289 628q-17 0 -27 -16t-19 -54q-6 -26 -7.5 -41t3 -23t15.5 -8q17 0 27.5 17t18.5 55q10 37 8 53.5t-19 16.5zM120 6l408 711l72 -26l-408 -711zM154 558q35 143 153 143q117 0 82 -143q-36 -145 -153 -145q-57 0 -78.5 36.5t-3.5 108.5zM333 145q35 143 153 143
q117 0 82 -143q-36 -145 -153 -145q-57 0 -78.5 36.5t-3.5 108.5zM422 145q-7 -26 -8.5 -41t3 -23t15.5 -8q17 0 27.5 16.5t20.5 55.5q6 26 7 40.5t-3.5 22t-15.5 7.5q-17 0 -27 -16t-19 -54z" />
    <glyph glyph-name="ampersand" unicode="&#x26;" horiz-adv-x="639" 
d="M433 695q168 0 168 -144q0 -72 -39.5 -116.5t-141.5 -83.5l84 -115q13 19 29.5 58t22.5 66h110q-12 -45 -42.5 -106t-57.5 -95l83 -100l-82 -71l-77 97q-92 -97 -222 -97q-112 0 -157 45.5t-45 125.5q0 89 48.5 147t149.5 98q-29 53 -29 105q0 92 54.5 139t143.5 47z
M291 90q37 0 77.5 20t64.5 47l-125 177q-66 -29 -92 -68t-26 -93q0 -83 101 -83zM355 505q0 -55 22 -89q62 30 83 56t21 68q0 55 -50 55q-37 0 -56.5 -24.5t-19.5 -65.5z" />
    <glyph glyph-name="quotesingle" unicode="'" horiz-adv-x="144" 
d="M223 444h-103l57 245h111z" />
    <glyph glyph-name="parenleft" unicode="(" horiz-adv-x="232" 
d="M292 748h112q-9 -13 -24 -37t-52.5 -97t-66.5 -143.5t-53 -166.5t-24 -177q0 -62 4 -124.5t8 -94.5l3 -31h-113q-28 94 -28 250q0 89 24 186t58.5 171.5t69 136t58.5 94.5z" />
    <glyph glyph-name="parenright" unicode=")" horiz-adv-x="233" 
d="M86 -118h-112q9 13 24 37t52.5 97t66.5 143.5t53 166.5t24 177q0 62 -4 124.5t-8 94.5l-3 31h113q28 -94 28 -250q0 -89 -24 -186t-58.5 -171.5t-69 -136t-58.5 -94.5z" />
    <glyph glyph-name="asterisk" unicode="*" horiz-adv-x="421" 
d="M506 502h-125l39 -121l-67 -21l-41 123l-104 -79l-43 54l106 78l-103 74l42 58l102 -74l40 122l68 -23l-38 -123h124v-68z" />
    <glyph glyph-name="plus" unicode="+" 
d="M108 197v108h174v174h108v-174h176v-108h-176v-176h-108v176h-174z" />
    <glyph glyph-name="comma" unicode="," horiz-adv-x="177" 
d="M56 -130h-99l113 272h130z" />
    <glyph glyph-name="hyphen" unicode="-" horiz-adv-x="284" 
d="M64 212l27 107h252l-27 -107h-252z" />
    <glyph glyph-name="period" unicode="." horiz-adv-x="156" 
d="M18 0l32 142h121l-32 -142h-121z" />
    <glyph glyph-name="slash" unicode="/" horiz-adv-x="456" 
d="M150 -21l-112 40l430 696l112 -39z" />
    <glyph glyph-name="zero" unicode="0" 
d="M403 672q212 0 212 -208t-86.5 -342t-220.5 -134q-211 0 -211 207q0 208 86 342.5t220 134.5zM401 566q-54 0 -96.5 -59.5t-62.5 -139t-20 -156.5q0 -60 20 -88.5t68 -28.5q54 0 96.5 58.5t63 138t20.5 156.5q0 61 -20 90t-69 29z" />
    <glyph glyph-name="one" unicode="1" 
d="M203 519l251 141h106l-152 -660h-121l118 515l-169 -93z" />
    <glyph glyph-name="two" unicode="2" 
d="M488 0h-424l24 100l213 183q96 83 135.5 127.5t39.5 81.5q0 42 -23 58.5t-82 16.5q-31 0 -72 -4.5t-67 -8.5l-25 -4l16 90q97 32 183 32q100 0 147.5 -36.5t47.5 -114.5q0 -81 -41.5 -138.5t-131.5 -125.5l-196 -152h282z" />
    <glyph glyph-name="three" unicode="3" 
d="M202 552l12 81q91 39 190 39q100 0 147 -34.5t47 -107.5q0 -68 -28.5 -109t-95.5 -73q37 -20 52 -47t15 -79q0 -105 -77 -169.5t-203 -64.5q-43 0 -93 9t-78 18l-28 9l26 85q113 -15 184 -15q60 0 102 32.5t42 89.5q0 33 -21 48.5t-72 16.5l-127 2l23 91l129 6
q42 1 83.5 36.5t41.5 81.5q0 68 -96 68q-36 0 -80 -3.5t-69 -6.5z" />
    <glyph glyph-name="four" unicode="4" 
d="M331 -4l28 119h-287l20 89l286 456h134l-289 -443h159l43 187h121l-43 -187h66l-24 -102h-65l-28 -119h-121z" />
    <glyph glyph-name="five" unicode="5" 
d="M249 661h389l-24 -105h-291l-63 -173q76 34 126 34q173 0 173 -156q0 -118 -76 -195t-190 -77q-51 0 -108 10t-89 20l-32 10l28 94q115 -29 191 -29q64 0 107.5 41.5t43.5 99.5q0 39 -21 58t-66 19q-24 0 -53.5 -6.5t-46.5 -13.5l-17 -6l-90 20z" />
    <glyph glyph-name="six" unicode="6" 
d="M638 650l-38 -99q-78 15 -157 15q-127 0 -189 -181q83 37 146 37q180 0 180 -170q0 -119 -71 -191.5t-199 -72.5q-98 0 -153 58.5t-55 174.5q0 75 24.5 152.5t69.5 145t117.5 110.5t158.5 43q33 0 74.5 -5.5t66.5 -10.5zM363 317q-30 0 -61.5 -7t-47.5 -14l-17 -7
q-9 -38 -9 -71q0 -52 21.5 -88t67.5 -36q67 0 102 38t35 107q0 78 -91 78z" />
    <glyph glyph-name="seven" unicode="7" 
d="M202 555l24 105h408l-36 -158l-363 -519l-111 33l356 499l8 40h-286z" />
    <glyph glyph-name="eight" unicode="8" 
d="M441 673q95 0 146 -38t51 -95q0 -72 -31.5 -118t-93.5 -81q61 -39 61 -124q0 -94 -86 -162t-219 -68q-106 0 -155 40t-49 122q0 62 41.5 111t97.5 81q-33 29 -41.5 50t-8.5 52q0 92 77 161t210 69zM297 92q65 0 106.5 37.5t41.5 81.5q0 29 -12 44.5t-43 27.5h-92
q-43 -14 -71.5 -42.5t-28.5 -69.5q0 -42 23 -60.5t76 -18.5zM414 567q-59 0 -96.5 -34t-37.5 -76q0 -26 8.5 -40.5t34.5 -31.5h92q35 17 63 47t28 61q0 74 -92 74z" />
    <glyph glyph-name="nine" unicode="9" 
d="M79 10l38 106q61 -15 140 -15q71 0 125.5 45t74.5 124l-27 -6q-28 -7 -68 -14.5t-63 -7.5q-88 0 -130 43t-38 137q4 96 80 173t209 77q98 0 142 -70t38 -196q-4 -101 -35 -182t-82.5 -132t-116 -77.5t-137.5 -26.5q-33 0 -70.5 5.5t-58.5 10.5zM337 350q25 0 61.5 5
t59.5 10l24 5q18 86 -3 138t-86 52q-56 0 -98 -35.5t-45 -92.5q-3 -46 17.5 -64t69.5 -18z" />
    <glyph glyph-name="colon" unicode=":" horiz-adv-x="161" 
d="M91 304l32 142h121l-32 -142h-121zM20 0l32 142h121l-32 -142h-121z" />
    <glyph glyph-name="semicolon" unicode=";" horiz-adv-x="181" 
d="M58 -130h-99l113 272h130zM107 304l32 142h121l-32 -142h-121z" />
    <glyph glyph-name="less" unicode="&#x3c;" 
d="M521 367l-281 -113l281 -122v-121l-409 191v98l409 188v-121z" />
    <glyph glyph-name="equal" unicode="=" 
d="M117 298v108h441v-108h-441zM117 96v108h441v-108h-441z" />
    <glyph glyph-name="greater" unicode="&#x3e;" 
d="M435 254l-281 113v121l409 -188v-98l-409 -191v121z" />
    <glyph glyph-name="question" unicode="?" horiz-adv-x="427" 
d="M517 545q0 -69 -32 -112.5t-122 -107.5q-56 -40 -66 -80l-9 -40h-112q1 45 8 83q10 53 96 115q64 47 87.5 72.5t23.5 57.5q0 33 -19.5 43.5t-60.5 10.5q-30 0 -66 -3.5t-57 -6.5l-20 -3l12 94q89 27 158 27q179 0 179 -150zM125 0l35 155h121l-35 -155h-121z" />
    <glyph glyph-name="at" unicode="@" horiz-adv-x="953" 
d="M636 725q100 0 174 -22.5t117 -61.5t63.5 -94t19.5 -117.5t-19 -134.5q-44 -169 -100.5 -237t-149.5 -68q-85 0 -109 47q-34 -17 -91.5 -33t-98.5 -16q-49 0 -81 23.5t-42.5 60t-12.5 80t8 83.5q53 277 252 277q51 0 232 -32q-12 -50 -41.5 -184t-31.5 -158q-2 -19 9 -27
t34 -8q34 0 60 44.5t55 159.5q14 57 17 100t-8.5 86t-41.5 70.5t-88.5 44.5t-143.5 17q-173 0 -271 -89t-141 -267q-14 -60 -15 -113t15.5 -101.5t50 -83.5t92 -55.5t138.5 -20.5l137 9l-23 -100q-96 -10 -141 -10q-79 0 -144 18.5t-108.5 52t-73.5 78t-42.5 98t-11.5 111
t15 117.5q58 244 188 350t353 106zM473 91q58 -1 132 41q4 47 56 264q-67 14 -96 14q-53 0 -83 -46.5t-48 -128.5q-15 -59 -5 -101t44 -43z" />
    <glyph glyph-name="A" unicode="A" horiz-adv-x="552" 
d="M16 0l316 683h215l-12 -683h-123l2 133h-213l-62 -133h-123zM403 576l-155 -337h170l9 337h-24z" />
    <glyph glyph-name="B" unicode="B" horiz-adv-x="574" 
d="M226 683h233q175 0 175 -144q0 -122 -117 -187q40 -22 55 -49t15 -69q0 -102 -69 -168t-198 -66h-252zM383 294h-124l-44 -189h129q53 0 84.5 34.5t31.5 91.5q0 63 -77 63zM439 578h-115l-42 -182h116q48 0 79 33.5t31 85.5q0 63 -69 63z" />
    <glyph glyph-name="C" unicode="C" horiz-adv-x="496" 
d="M482 109l-9 -95q-92 -26 -169 -26q-101 0 -151.5 51t-50.5 147q0 66 11.5 134t38.5 136t66 120.5t99.5 85.5t134.5 33q36 0 78.5 -7.5t67.5 -14.5l24 -7l-29 -91q-65 12 -146 12q-67 0 -118 -59t-75.5 -147.5t-24.5 -186.5t91 -98q35 0 75.5 3t63.5 7z" />
    <glyph glyph-name="D" unicode="D" horiz-adv-x="605" 
d="M311 0h-243l158 683h216q216 0 216 -207q0 -68 -12.5 -134.5t-40.5 -128.5t-67.5 -109t-98 -75.5t-128.5 -28.5zM531 476q0 55 -28.5 77.5t-85.5 22.5h-93l-108 -469h107q53 0 95 38.5t65.5 97t35.5 119t12 114.5z" />
    <glyph glyph-name="E" unicode="E" horiz-adv-x="499" 
d="M68 0l157 683h396l-25 -107h-272l-42 -180h218l-25 -107h-217l-42 -182h273l-24 -107h-397z" />
    <glyph glyph-name="F" unicode="F" horiz-adv-x="478" 
d="M68 0l158 683h388l-25 -107h-265l-51 -222h221l-26 -107h-220l-57 -247h-123z" />
    <glyph glyph-name="G" unicode="G" horiz-adv-x="569" 
d="M383 271l24 102h196l-84 -358q-73 -27 -193 -27q-221 0 -221 210q0 97 22 184.5t64.5 158t113.5 112.5t161 42q48 0 99.5 -9.5t78.5 -19.5l28 -9l-29 -90q-99 21 -188 21q-57 0 -102 -37.5t-70.5 -97.5t-38.5 -126t-13 -130q0 -102 109 -102q18 0 37.5 2t30.5 4l10 2
l39 168h-74z" />
    <glyph glyph-name="H" unicode="H" horiz-adv-x="621" 
d="M430 0l68 295h-240l-67 -295h-123l158 683h123l-66 -281h240l65 281h122l-157 -683h-123z" />
    <glyph glyph-name="I" unicode="I" horiz-adv-x="349" 
d="M194 589l22 94h232l-22 -94h-55l-113 -495h55l-21 -94h-232l21 94h54l114 495h-55z" />
    <glyph glyph-name="J" unicode="J" horiz-adv-x="278" 
d="M371 683l-128 -552q-11 -47 -19.5 -76.5t-22 -54t-28 -36.5t-39.5 -20.5t-53.5 -10.5t-74.5 -2l21 107q47 1 63 16t31 78l127 551h123z" />
    <glyph glyph-name="K" unicode="K" horiz-adv-x="535" 
d="M394 0l-58 281l-82 -6l-63 -275h-123l158 683h123l-70 -301l71 7l193 294h135l-230 -343l75 -340h-129z" />
    <glyph glyph-name="L" unicode="L" horiz-adv-x="425" 
d="M421 0h-353l158 683h123l-133 -576h229z" />
    <glyph glyph-name="M" unicode="M" horiz-adv-x="787" 
d="M68 0l158 683h193l11 -518l250 518h196l-157 -683h-123l134 576h-7l-264 -547h-118l-12 547h-6l-132 -576h-123z" />
    <glyph glyph-name="N" unicode="N" horiz-adv-x="646" 
d="M68 0l158 683h198l53 -553h14l126 553h118l-157 -683h-189l-60 562h-14l-131 -562h-116z" />
    <glyph glyph-name="O" unicode="O" horiz-adv-x="618" 
d="M338 95q54 0 92 36q52 49 82.5 148.5t30.5 195.5q0 61 -24 87t-82 26q-53 0 -88 -32q-55 -51 -87 -155t-32 -193q0 -61 24.5 -87t83.5 -26zM318 -12q-214 0 -214 208q0 131 40.5 247.5t116.5 182.5q78 69 189 69q220 0 220 -208q0 -137 -41.5 -256.5t-123.5 -183.5
q-76 -59 -187 -59z" />
    <glyph glyph-name="P" unicode="P" horiz-adv-x="547" 
d="M340 205h-102l-47 -205h-123l158 683h201q106 0 153.5 -44t47.5 -141q0 -140 -77 -216.5t-211 -76.5zM263 312h93q69 0 107 49t38 135q0 41 -19 60.5t-64 19.5h-94z" />
    <glyph glyph-name="Q" unicode="Q" horiz-adv-x="618" 
d="M318 -12q-214 0 -214 208q0 131 40.5 247.5t116.5 182.5q78 69 189 69q220 0 220 -208q0 -137 -41.5 -256.5t-123.5 -183.5q-19 -14 -37 -24l48 -137l-116 -38l-43 143q-19 -3 -39 -3zM338 95q54 0 92 36q52 49 82.5 148.5t30.5 195.5q0 61 -24 87t-82 26q-53 0 -88 -32
q-55 -51 -87 -155t-32 -193q0 -61 24.5 -87t83.5 -26z" />
    <glyph glyph-name="R" unicode="R" 
d="M407 0l-51 227h-113l-52 -227h-123l158 683h200q103 0 152.5 -44t49.5 -143q0 -97 -45.5 -162t-112.5 -90l60 -244h-123zM502 491q0 46 -19.5 66.5t-64.5 20.5h-94l-57 -246h104q60 0 95.5 46t35.5 113z" />
    <glyph glyph-name="S" unicode="S" horiz-adv-x="496" 
d="M587 659l-22 -88q-109 18 -179 18q-52 0 -82 -27.5t-30 -75.5q0 -31 18 -46.5t83 -43.5q82 -35 109.5 -69.5t27.5 -102.5q0 -113 -68.5 -174.5t-185.5 -61.5q-46 0 -98 9.5t-80 18.5l-29 10l21 89q114 -20 185 -20q131 0 131 116q0 32 -18.5 48t-85.5 45q-72 31 -103 67
t-31 101q0 98 64 160.5t170 62.5q46 0 97 -9t79 -18z" />
    <glyph glyph-name="T" unicode="T" horiz-adv-x="459" 
d="M142 576l25 107h440l-25 -107h-159l-133 -576h-123l133 576h-158z" />
    <glyph glyph-name="U" unicode="U" horiz-adv-x="595" 
d="M342 683l-106 -456q-9 -38 -9 -67q0 -36 24 -50t70 -14q66 0 95 30t45 100l106 457h123l-106 -457q-29 -125 -93 -181.5t-181 -56.5q-96 0 -150.5 38t-54.5 114q0 48 13 106l101 437h123z" />
    <glyph glyph-name="V" unicode="V" horiz-adv-x="552" 
d="M571 683h123l-314 -683h-216l9 683h123l-18 -576h36z" />
    <glyph glyph-name="W" unicode="W" horiz-adv-x="856" 
d="M177 683h123l-40 -570h18l236 560h135l-29 -560h17l233 570h123l-293 -683h-183l30 513l-211 -513h-189z" />
    <glyph glyph-name="X" unicode="X" horiz-adv-x="518" 
d="M300 683l59 -251l179 251h130l-257 -341l99 -342h-129l-64 254l-183 -254h-130l262 344l-95 339h129z" />
    <glyph glyph-name="Y" unicode="Y" horiz-adv-x="501" 
d="M656 683l-283 -393l-69 -290h-114l69 296l-98 387h124l57 -279l184 279h130z" />
    <glyph glyph-name="Z" unicode="Z" horiz-adv-x="491" 
d="M170 576l25 107h417l-30 -130l-377 -422l-6 -24h280l-25 -107h-418l29 128l375 423l6 25h-276z" />
    <glyph glyph-name="bracketleft" unicode="[" horiz-adv-x="253" 
d="M197 747h221l-25 -102h-96l-155 -665h96l-25 -102h-218z" />
    <glyph glyph-name="backslash" unicode="\" horiz-adv-x="469" 
d="M443 2l-124 -2l-132 700l124 2z" />
    <glyph glyph-name="bracketright" unicode="]" horiz-adv-x="253" 
d="M201 -122h-221l25 102h96l155 665h-96l25 102h218z" />
    <glyph glyph-name="asciicircum" unicode="^" 
d="M433 314l-118 230l-120 -230h-125l192 346h102l194 -346h-125z" />
    <glyph glyph-name="underscore" unicode="_" horiz-adv-x="503" 
d="M8 -80h449l-26 -112h-448z" />
    <glyph glyph-name="grave" unicode="`" horiz-adv-x="518" 
d="M310 764l212 -90l-50 -88l-219 81z" />
    <glyph glyph-name="a" unicode="a" horiz-adv-x="521" 
d="M541 337l-19 -80l-23 -100l-27 -154l-118 -5q5 45 9 63q-6 -8 -17.5 -20t-46.5 -32.5t-71 -20.5q-72 0 -104.5 34t-32.5 106q0 87 57 131t151 49l118 5l6 24q9 35 -9.5 54t-53.5 19q-30 0 -76.5 -4t-77.5 -8l-32 -4l-4 84q106 34 218 34q82 0 126.5 -48t26.5 -127z
M399 229l-93 -5q-94 -7 -94 -82q0 -27 11.5 -39.5t38.5 -12.5q24 0 53 16t47 32l17 17z" />
    <glyph glyph-name="b" unicode="b" horiz-adv-x="520" 
d="M407 512q146 0 146 -161q0 -150 -69.5 -256t-189.5 -106q-45 0 -103 7.5t-94 15.5l-36 8l157 684h119l-57 -250l19.5 16t46 26t61.5 16zM292 91q36 0 64.5 27.5t44 69t23 80.5t7.5 71q0 71 -60 71q-21 0 -50 -15t-47 -29l-18 -15l-57 -249q50 -11 93 -11z" />
    <glyph glyph-name="c" unicode="c" horiz-adv-x="408" 
d="M346 512q30 0 65.5 -7t56.5 -14l21 -7l-30 -88q-74 12 -118 12q-65 0 -100 -68.5t-35 -157.5q0 -45 19 -67.5t63 -22.5q19 0 46.5 2t45.5 4l17 3l-10 -88q-72 -25 -141 -25q-74 0 -117.5 44.5t-43.5 124.5q0 153 67.5 254t193.5 101z" />
    <glyph glyph-name="d" unicode="d" horiz-adv-x="521" 
d="M626 704l-163 -704h-116l12 61q-7 -8 -19 -20t-48 -32.5t-70 -20.5q-69 0 -104.5 44t-35.5 126q0 85 27.5 164t87 134t137.5 55q20 0 51 -5.5t51 -10.5l21 -5l50 214h119zM385 174l51 221q-60 14 -102 14q-40 0 -71 -42.5t-45.5 -98.5t-14.5 -109q0 -69 57 -69
q20 0 51 21t53 42z" />
    <glyph glyph-name="e" unicode="e" horiz-adv-x="472" 
d="M282 90q31 0 72 4t67 8l26 4l-13 -89q-91 -29 -186 -29q-165 0 -165 166q0 94 27 172.5t90.5 131.5t155.5 53q169 0 169 -142q0 -94 -65 -130t-213 -36h-39q-5 -20 -5 -45q0 -33 22 -50.5t57 -17.5zM221 292h45q77 0 109 17t32 58q0 50 -57 50q-97 0 -129 -125z" />
    <glyph glyph-name="f" unicode="f" horiz-adv-x="323" 
d="M290 398l-93 -398l-62 -214h-107l143 611h-49l25 103h46l6 26q25 105 63 147.5t116 42.5q20 0 43 -5t37 -11l13 -5l-22 -88q-36 7 -67 7q-26 0 -39 -22t-24 -67l-7 -25h113l-26 -102h-109z" />
    <glyph glyph-name="g" unicode="g" horiz-adv-x="480" 
d="M219 -231q-208 0 -208 135q0 48 34.5 80t90.5 60q-19 18 -19 50q0 20 14.5 44t28.5 38l15 15q-68 38 -68 123q0 84 56.5 141t149.5 57q22 0 50.5 -4.5t46.5 -9.5l18 -4l146 6l-22 -97h-66q7 -21 7 -55q0 -77 -59 -132.5t-151 -55.5l-40 5q-19 -25 -19 -44
q0 -13 19.5 -19.5t74.5 -13.5q66 -10 105 -37.5t39 -87.5q0 -86 -65.5 -140t-177.5 -54zM274 -5q-71 11 -86 15q-26 -14 -47 -35.5t-21 -42.5q0 -28 24 -45.5t73 -17.5q55 0 93.5 19t38.5 62q0 22 -17 30.5t-58 14.5zM291 258q41 0 66.5 28t25.5 65q0 63 -75 63
q-40 0 -65.5 -28t-25.5 -66q0 -62 74 -62z" />
    <glyph glyph-name="h" unicode="h" horiz-adv-x="509" 
d="M177 0h-119l162 704h119l-59 -261q7 8 19.5 19.5t47.5 30.5t67 19q62 0 91.5 -38t29.5 -100q0 -31 -21 -127l-57 -247h-119l55 238q18 69 18 108q0 32 -9.5 47t-37.5 15q-17 0 -44.5 -18t-46.5 -36l-19 -19z" />
    <glyph glyph-name="i" unicode="i" horiz-adv-x="234" 
d="M58 0l115 500h119l-115 -500h-119zM187 565l29 125h120l-28 -125h-121z" />
    <glyph glyph-name="j" unicode="j" horiz-adv-x="234" 
d="M58 0l115 500h119l-115 -500q-14 -59 -23 -85.5t-33.5 -54t-56.5 -44t-101 -47.5l-37 95q80 42 99.5 62t32.5 74zM186 558l29 125h120l-29 -125h-120z" />
    <glyph glyph-name="k" unicode="k" horiz-adv-x="462" 
d="M177 0h-119l162 704h119l-91 -396l41 6l141 185h131l-183 -238l73 -261h-122l-57 215l-47 -5z" />
    <glyph glyph-name="l" unicode="l" horiz-adv-x="237" 
d="M59 0l162 704h119l-162 -704h-119z" />
    <glyph glyph-name="m" unicode="m" horiz-adv-x="776" 
d="M456 0h-119l55 238q18 81 18 108q0 31 -10.5 46.5t-36.5 15.5q-18 0 -45.5 -18t-45.5 -36l-18 -19l-77 -335h-119l115 500h114l-8 -58q7 8 19 19.5t48.5 31t70.5 19.5q40 0 66 -19t33 -38l6 -19q9 9 24.5 21.5t57.5 33.5t77 21q119 0 119 -138q0 -43 -19 -127l-57 -247
h-119l57 238q18 81 18 104q0 66 -44 66q-20 0 -47 -16.5t-44 -33.5l-17 -16q-6 -57 -15 -95z" />
    <glyph glyph-name="n" unicode="n" horiz-adv-x="509" 
d="M177 0h-119l115 500h114l-9 -59q7 8 20 20t48.5 31.5t67.5 19.5q62 0 91.5 -38t29.5 -100q0 -31 -21 -127l-57 -247h-119l55 238q18 81 18 108q0 32 -10 47t-38 15q-18 0 -45 -18t-46 -36l-18 -19z" />
    <glyph glyph-name="o" unicode="o" horiz-adv-x="496" 
d="M335 511q192 0 192 -185q0 -84 -28 -159.5t-87.5 -127t-138.5 -51.5q-190 0 -190 183q0 83 29.5 159.5t88.5 128.5t134 52zM273 90q60 0 97.5 72.5t37.5 165.5q0 81 -73 81q-59 0 -96.5 -73.5t-37.5 -165.5q0 -80 72 -80z" />
    <glyph glyph-name="p" unicode="p" horiz-adv-x="520" 
d="M9 -213l164 713h116l-12 -61q7 8 20 20t48.5 32.5t66.5 20.5q71 0 106.5 -44.5t35.5 -120.5q0 -87 -27.5 -167t-87 -135.5t-137.5 -55.5q-22 0 -53 5.5t-51 10.5l-20 5l-52 -223h-117zM376 410q-20 0 -51 -21t-53 -42l-21 -21l-51 -221q60 -14 102 -14q58 0 94.5 82
t36.5 167q0 70 -57 70z" />
    <glyph glyph-name="q" unicode="q" horiz-adv-x="519" 
d="M222 -12q-69 0 -104.5 44.5t-35.5 123.5q0 88 28.5 167.5t87 133.5t135.5 54q37 0 97 -7.5t102 -15.5l41 -8l-159 -692h-119l64 274q-7 -8 -19 -20.5t-48 -33t-70 -20.5zM333 409q-56 0 -93 -81t-37 -169q0 -69 57 -69q20 0 51 21t53 42l21 21l50 221q-60 14 -102 14z
" />
    <glyph glyph-name="r" unicode="r" horiz-adv-x="329" 
d="M58 0l115 500h118l-18 -73l26 20.5t59 36t78 28.5l-34 -125q-24 -7 -61 -22t-63 -27l-25 -12l-76 -326h-119z" />
    <glyph glyph-name="s" unicode="s" horiz-adv-x="431" 
d="M492 482l-22 -89q-101 16 -166 16q-35 0 -55 -17.5t-20 -43.5q0 -18 15.5 -28t61.5 -23q75 -23 104.5 -45.5t29.5 -75.5q0 -92 -61.5 -140t-161.5 -48q-41 0 -83.5 8t-64.5 16l-22 8l22 88q96 -18 161 -18q88 0 88 62q0 17 -15.5 25.5t-55.5 19.5q-70 19 -103.5 45
t-33.5 75q0 90 59.5 142t145.5 52q44 0 88.5 -7.5t66.5 -14.5z" />
    <glyph glyph-name="t" unicode="t" horiz-adv-x="326" 
d="M397 398h-113l-49 -213q-9 -43 -9 -62q0 -33 34 -33l71 5l-10 -86q-53 -21 -108 -21q-53 0 -82 29.5t-29 75.5q0 37 16 103l47 202h-57l27 102h54l31 133h119l-31 -133h114z" />
    <glyph glyph-name="u" unicode="u" horiz-adv-x="509" 
d="M447 500h120l-116 -500h-114l9 59q-7 -8 -20 -20t-48.5 -31.5t-66.5 -19.5q-62 0 -91.5 38t-29.5 100q0 38 20 127l57 247h119l-55 -238q-18 -81 -18 -108q0 -62 48 -62q18 0 45 18t46 36l18 19z" />
    <glyph glyph-name="v" unicode="v" horiz-adv-x="461" 
d="M129 500h117l-9 -401h22l182 401h121l-240 -500h-193v500z" />
    <glyph glyph-name="w" unicode="w" horiz-adv-x="754" 
d="M137 500h120l-26 -398h22l170 388h136l-14 -388h22l161 398h120l-209 -500h-201l14 331l-141 -331h-197z" />
    <glyph glyph-name="x" unicode="x" horiz-adv-x="427" 
d="M127 500h121l46 -164l117 164h122l-199 -259l82 -241h-122l-45 158l-115 -158h-125l199 250z" />
    <glyph glyph-name="y" unicode="y" horiz-adv-x="462" 
d="M129 500h117l-9 -401h19l185 401h121l-341 -713h-118l106 213h-80v500z" />
    <glyph glyph-name="z" unicode="z" horiz-adv-x="415" 
d="M126 398l26 102h344l-25 -99l-274 -299h208l-26 -102h-344l22 100l273 298h-204z" />
    <glyph glyph-name="braceleft" unicode="{" horiz-adv-x="294" 
d="M256 220q0 -19 -22.5 -97t-22.5 -98q0 -53 65 -53l-28 -104q-72 1 -113.5 33t-41.5 90q0 23 21.5 103t21.5 99q0 52 -68 85l22 86q62 16 82 35t30 59q11 43 28 144q25 83 77 117t152 38l-20 -103q-47 -4 -69.5 -24.5t-31.5 -58.5l-24 -124q-14 -58 -40.5 -87t-78.5 -47
q32 -18 46.5 -38.5t14.5 -54.5z" />
    <glyph glyph-name="bar" unicode="|" horiz-adv-x="329" 
d="M162 -213v917h119v-917h-119z" />
    <glyph glyph-name="braceright" unicode="}" horiz-adv-x="293" 
d="M181 403q0 19 22.5 97t22.5 98q0 53 -65 53l28 104q72 -1 113.5 -33t41.5 -90q0 -23 -21.5 -103t-21.5 -99q0 -52 68 -85l-22 -86q-62 -16 -82 -35t-30 -59q-11 -43 -28 -144q-25 -83 -77 -117t-152 -38l20 103q47 4 69.5 24.5t31.5 58.5l24 124q14 58 40.5 87t78.5 47
q-32 18 -46.5 38.5t-14.5 54.5z" />
    <glyph glyph-name="asciitilde" unicode="~" 
d="M547 323l9 -95q-6 -6 -17 -14.5t-40.5 -23t-55.5 -14.5q-29 0 -107 24.5t-96 24.5q-20 0 -47 -10.5t-44 -20.5l-17 -10l-10 95q7 6 19 15t44 23.5t58 14.5q28 0 103.5 -24.5t98.5 -24.5q17 0 42.5 10t42.5 20z" />
    <glyph glyph-name="exclamdown" unicode="&#xa1;" horiz-adv-x="165" 
d="M197 249l-97 -449h-127l113 449h111zM258 500l-33 -142h-121l33 142h121z" />
    <glyph glyph-name="cent" unicode="&#xa2;" 
d="M252 -76l25 107q-60 3 -92.5 37t-34.5 81.5t8 100.5q26 103 83.5 157.5t138.5 59.5l25 106h96l-26 -109l75 -10l-30 -100q-74 4 -110 4q-60 0 -91.5 -25.5t-46.5 -82.5q-14 -57 4 -83t85 -26l112 5l-19 -100q-42 -7 -81 -9l-25 -113h-96z" />
    <glyph glyph-name="sterling" unicode="&#xa3;" 
d="M620 656l-28 -90q-64 8 -107 8q-21 0 -35 -7t-23.5 -24.5t-14.5 -33t-13 -46.5l-6 -26h166l-24 -101h-165l-54 -234h103l70 18l-2 -103l-75 -17h-336l23 102h96l53 234h-79l24 101h78l10 40q27 110 69.5 156t128.5 46q23 0 58 -5.5t59 -11.5z" />
    <glyph glyph-name="currency" unicode="&#xa4;" 
d="M500 9l-73 72q-88 -46 -177 0l-72 -72l-82 82l72 72q-21 42 -21 89t21 88l-72 73l82 82l72 -73q89 46 177 0l73 73l82 -82l-73 -73q21 -41 21 -88t-21 -89l73 -72zM279 193q25 -25 60 -25t59 25q24 24 24 59t-24 59q-24 25 -59 25t-60 -25q-24 -24 -24 -59t24 -59z" />
    <glyph glyph-name="yen" unicode="&#xa5;" 
d="M140 284l23 106h84l-110 270h133l101 -243l191 243h159l-221 -270h84l-25 -106h-138l-11 -12l-8 -33h147l-24 -105h-147l-31 -134h-122l32 134h-153l25 105h152l7 33l-3 12h-145z" />
    <glyph glyph-name="brokenbar" unicode="&#xa6;" horiz-adv-x="331" 
d="M162 704h120v-372h-120v372zM162 166h120v-379h-120v379z" />
    <glyph glyph-name="section" unicode="&#xa7;" horiz-adv-x="483" 
d="M563 618l-27 -100q-103 16 -148 16q-55 0 -84.5 -20.5t-29.5 -55.5q0 -27 25.5 -39.5t75.5 -23.5q7 -1 11 -2q119 -26 119 -123q0 -30 -17.5 -65.5t-31 -53t-36.5 -44.5q17 -26 17 -57q0 -23 -4.5 -47.5t-20 -58.5t-41 -59.5t-73 -44t-110.5 -18.5q-28 0 -70 5t-70 11
l-28 5l34 99q100 -14 151 -14t83 21.5t32 52.5q0 7 -0.5 12t-3.5 10t-5.5 8t-9 6.5t-11 5.5t-15.5 5.5t-19 5.5t-24 6.5t-28 7.5q-65 18 -92.5 47.5t-27.5 75.5q0 91 94 163q-20 19 -20 80q0 72 66.5 138.5t181.5 66.5q29 0 68 -5.5t64 -10.5zM311 295q-55 12 -66 19
q-10 -13 -24.5 -42t-14.5 -50q0 -17 13 -25t43 -18q63 -21 79 -29q11 11 25.5 42t14.5 51t-15.5 31t-54.5 21z" />
    <glyph glyph-name="dieresis" unicode="&#xa8;" horiz-adv-x="556" 
d="M222 606l28 124h99l-29 -124h-98zM413 606l28 124h99l-30 -124h-97z" />
    <glyph glyph-name="copyright" unicode="&#xa9;" horiz-adv-x="642" 
d="M148 434q0 121 77.5 201t195.5 80q121 0 196.5 -81.5t75.5 -199.5q0 -121 -75.5 -201t-197.5 -80q-116 0 -194 81t-78 200zM206 434q0 -93 61.5 -159t152.5 -66q93 0 154.5 65.5t61.5 159.5q0 93 -62.5 159t-153.5 66t-152.5 -66t-61.5 -159zM504 362l7 -75
q-31 -16 -83 -16q-68 0 -96.5 36t-28.5 131q0 87 29.5 122.5t98.5 35.5q21 0 41 -3t30 -7l9 -3l-7 -78q-35 6 -67 6q-24 0 -33 -16t-9 -57q0 -43 9.5 -62.5t32.5 -19.5z" />
    <glyph glyph-name="ordfeminine" unicode="&#xaa;" horiz-adv-x="333" 
d="M428 548l-32 -140q7 -8 19 -10l-19 -74q-61 0 -80.5 7t-28.5 24q-53 -30 -101 -30t-68 28t-8 77q11 49 43 72t96 26l70 3l6 22q2 11 -7.5 16.5t-31.5 5.5l-128 -7l12 68q76 23 142 23q71 0 101 -24t15 -87zM304 467l-51 -3q-37 -3 -42 -31q-6 -29 26 -29q11 0 25.5 4
t23.5 8l9 5z" />
    <glyph glyph-name="guillemotleft" unicode="&#xab;" horiz-adv-x="473" 
d="M556 429l-33 -117l-118 -71l83 -82l-30 -107l-163 164l20 55zM321 429l-33 -117l-118 -71l83 -82l-30 -107l-163 164l20 55z" />
    <glyph glyph-name="logicalnot" unicode="&#xac;" 
d="M116 354h433v-247h-107v140h-326v107z" />
    <glyph glyph-name="registered" unicode="&#xae;" horiz-adv-x="642" 
d="M148 434q0 121 77 201t195 80q122 0 197.5 -81.5t75.5 -199.5q0 -121 -75.5 -201t-197.5 -80q-116 0 -194 81t-78 200zM206 434q0 -93 62.5 -159t151.5 -66q93 0 154.5 65.5t61.5 159.5q0 93 -62.5 159t-153.5 66t-152.5 -66t-61.5 -159zM460 277l-34 97h-36v-97h-87v312
h130q114 0 114 -102q0 -39 -9 -60.5t-33 -37.5l45 -112h-90zM389 524v-85h35q39 0 39 42q0 43 -42 43h-32z" />
    <glyph glyph-name="macron" unicode="&#xaf;" horiz-adv-x="456" 
d="M220 630l22 97h301l-23 -97h-300z" />
    <glyph glyph-name="degree" unicode="&#xb0;" 
d="M258 547q0 65 41 106.5t107 41.5t107 -41.5t41 -106.5q0 -66 -41 -106.5t-107 -40.5t-107 40.5t-41 106.5zM327 547q0 -36 21.5 -58t57.5 -22t58.5 22t22.5 58q0 35 -23 58t-58 23q-36 0 -57.5 -22.5t-21.5 -58.5z" />
    <glyph glyph-name="plusminus" unicode="&#xb1;" 
d="M100 276v107h174v112h107v-112h176v-107h-176v-107h-107v107h-174zM100 131h457v-107h-457v107z" />
    <glyph glyph-name="twosuperior" unicode="&#xb2;" horiz-adv-x="280" 
d="M361 478h-226l20 82l93 65q56 38 63 64q3 11 -6 15.5t-29 4.5l-80 -7l19 89q72 10 116 10q59 0 78.5 -23t5.5 -75q-14 -59 -83 -103l-53 -36h102z" />
    <glyph glyph-name="threesuperior" unicode="&#xb3;" horiz-adv-x="280" 
d="M213 791q68 10 109 10q59 0 82.5 -21.5t12.5 -66.5q-12 -53 -49 -71q35 -16 19 -74q-24 -101 -140 -101q-22 0 -51 2.5t-47 4.5l-18 2l26 84q59 -7 94 -7q34 0 40 22q3 13 -3.5 17t-22.5 4h-66l19 78h64q26 0 30 21q3 11 -3.5 15.5t-22.5 4.5l-88 -6z" />
    <glyph glyph-name="acute" unicode="&#xb4;" horiz-adv-x="556" 
d="M260 581l-9 95l255 91l9 -106z" />
    <glyph glyph-name="mu" unicode="&#xb5;" 
d="M31 -213l101 440l1 6l5 20l8 34l49 213h119l-49 -213l-13 -55q-11 -59 -11 -78q0 -62 48 -62q18 0 45 18t46 36l18 19l77 335h120l-116 -500h-114l9 59q-7 -8 -20 -20t-48.5 -31.5t-66.5 -19.5q-24 0 -42 6l-47 -207h-119z" />
    <glyph glyph-name="paragraph" unicode="&#xb6;" horiz-adv-x="563" 
d="M374 0l144 604h-70l-145 -604h-96l74 312q-73 1 -106.5 43.5t-33.5 107.5q0 92 64.5 164.5t161.5 72.5h313l-22 -96h-43l-145 -604h-96z" />
    <glyph glyph-name="periodcentered" unicode="&#xb7;" horiz-adv-x="156" 
d="M68 216l35 157h120l-35 -157h-120z" />
    <glyph glyph-name="cedilla" unicode="&#xb8;" horiz-adv-x="791" 
d="M504 -124q-24 -101 -124 -101q-18 0 -39 2.5t-33 4.5l-11 3l18 74q32 -2 50 -2q38 0 44 27q4 15 -4 19.5t-27 4.5h-27l22 97h49l-11 -41h6q107 0 87 -88z" />
    <glyph glyph-name="onesuperior" unicode="&#xb9;" horiz-adv-x="280" 
d="M192 716l123 74h87l-77 -312h-96l51 207l-61 -36z" />
    <glyph glyph-name="ordmasculine" unicode="&#xba;" horiz-adv-x="342" 
d="M321 660q47 0 84 -17.5t44 -53.5q8 -39 -3 -92q-23 -95 -70.5 -134t-133.5 -39q-62 0 -95 32t-30 88q1 25 9 55q21 87 68 124t127 37zM263 411q31 0 49 18.5t31 66.5q5 23 5 39q0 41 -45 41q-30 0 -47 -16.5t-27 -57.5q-8 -32 -8 -50q0 -21 9.5 -31t32.5 -10z" />
    <glyph glyph-name="guillemotright" unicode="&#xbb;" horiz-adv-x="475" 
d="M266 52l33 117l118 71l-83 82l30 107l163 -164l-20 -55zM30 52l33 117l118 71l-83 82l30 107l163 -164l-20 -55z" />
    <glyph glyph-name="onequarter" unicode="&#xbc;" horiz-adv-x="624" 
d="M163 716l123 74h87l-77 -312h-96l51 207l-61 -36zM215 -21l-112 40l430 696l112 -39zM508 0l9 38h-137l20 80l98 194h106l-104 -188h39l34 90h83l-23 -90h15l-21 -86h-15l-9 -38h-95z" />
    <glyph glyph-name="onehalf" unicode="&#xbd;" horiz-adv-x="639" 
d="M163 716l123 74h87l-77 -312h-96l51 207l-61 -36zM215 -21l-112 40l430 696l112 -39zM629 0h-226l20 82l93 65q56 38 63 64q3 11 -6 15.5t-29 4.5l-80 -7l19 89q72 10 116 10q59 0 78.5 -23t5.5 -75q-14 -59 -83 -103l-53 -36h102z" />
    <glyph glyph-name="threequarters" unicode="&#xbe;" horiz-adv-x="625" 
d="M197 791q68 10 109 10q59 0 82.5 -21.5t12.5 -66.5q-12 -53 -49 -71q35 -16 19 -74q-24 -101 -140 -101q-22 0 -51 2.5t-47 4.5l-18 2l26 84q59 -7 94 -7q34 0 40 22q3 13 -3.5 17t-22.5 4h-66l19 78h64q26 0 30 21q3 11 -3.5 15.5t-22.5 4.5l-88 -6zM217 -21l-112 40
l430 696l112 -39zM510 0l9 38h-137l20 80l98 194h106l-104 -188h39l34 90h83l-23 -90h15l-21 -86h-15l-9 -38h-95z" />
    <glyph glyph-name="questiondown" unicode="&#xbf;" horiz-adv-x="426" 
d="M26 -45q0 69 32 112.5t122 107.5q56 40 66 80l9 40h112q-1 -45 -8 -83q-10 -53 -96 -115q-64 -47 -87.5 -72.5t-23.5 -57.5q0 -33 19.5 -43.5t60.5 -10.5q30 0 66 3.5t56 6.5l21 3l-12 -94q-89 -27 -158 -27q-179 0 -179 150zM418 500l-35 -155h-121l35 155h121z" />
    <glyph glyph-name="Agrave" unicode="&#xc0;" horiz-adv-x="552" 
d="M378 945l202 -100l-43 -84l-218 79zM16 0l316 683h215l-12 -683h-123l2 133h-213l-62 -133h-123zM403 576l-155 -337h170l9 337h-24z" />
    <glyph glyph-name="Aacute" unicode="&#xc1;" horiz-adv-x="552" 
d="M362 770l-18 94l264 92l18 -115zM16 0l316 683h215l-12 -683h-123l2 133h-213l-62 -133h-123zM403 576l-155 -337h170l9 337h-24z" />
    <glyph glyph-name="Acircumflex" unicode="&#xc2;" horiz-adv-x="552" 
d="M281 783l173 148h70l96 -148h-109l-33 61l-70 -61h-127zM16 0l316 683h215l-12 -683h-123l2 133h-213l-62 -133h-123zM403 576l-155 -337h170l9 337h-24z" />
    <glyph glyph-name="Atilde" unicode="&#xc3;" horiz-adv-x="552" 
d="M630 931l2 -84q-64 -62 -110 -62q-26 0 -79 23.5t-69 23.5q-11 0 -32 -10.5t-37 -21.5l-16 -10l-4 84q68 62 114 62q32 0 84 -22.5t61 -22.5q11 0 32.5 10t37.5 20zM16 0l316 683h215l-12 -683h-123l2 133h-213l-62 -133h-123zM403 576l-155 -337h170l9 337h-24z" />
    <glyph glyph-name="Adieresis" unicode="&#xc4;" horiz-adv-x="552" 
d="M316 794l29 125h98l-29 -125h-98zM512 794l29 125h99l-31 -125h-97zM16 0l316 683h215l-12 -683h-123l2 133h-213l-62 -133h-123zM403 576l-155 -337h170l9 337h-24z" />
    <glyph glyph-name="Aring" unicode="&#xc5;" horiz-adv-x="552" 
d="M16 0l307 665q-7 23 2 58q14 56 54.5 84.5t97.5 28.5q55 0 82.5 -28t13.5 -85q-9 -33 -27 -57l-11 -666h-123l2 133h-213l-62 -133h-123zM403 576l-155 -337h170l9 337h-24zM402 723q-4 -16 6.5 -25.5t31.5 -9.5q48 0 56 35q4 18 -8.5 26.5t-30.5 8.5q-47 0 -55 -35z" />
    <glyph glyph-name="AE" unicode="&#xc6;" horiz-adv-x="760" 
d="M322 0l31 133h-158l-62 -133h-116l317 691h552l-27 -116l-286 2l-43 -179h230l-25 -111h-231l-41 -172h286l-26 -115h-401zM397 576l-150 -329h133l78 329h-61z" />
    <glyph glyph-name="Ccedilla" unicode="&#xc7;" horiz-adv-x="496" 
d="M482 109l-9 -95q-92 -26 -169 -26h-9l-6 -24h6q107 0 87 -88q-24 -101 -124 -101q-18 0 -39 2.5t-33 4.5l-11 3l18 74q32 -2 50 -2q38 0 44 27q4 15 -4 19.5t-27 4.5h-27l19 85q-146 25 -146 193q0 66 11.5 134t38.5 136t66 120.5t99.5 85.5t134.5 33q36 0 78.5 -7.5
t67.5 -14.5l24 -7l-29 -91q-65 12 -146 12q-67 0 -118 -59t-75.5 -147.5t-24.5 -186.5t91 -98q35 0 75.5 3t63.5 7z" />
    <glyph glyph-name="Egrave" unicode="&#xc8;" horiz-adv-x="499" 
d="M344 945l202 -100l-43 -84l-218 79zM68 0l157 683h396l-25 -107h-272l-42 -180h218l-25 -107h-217l-42 -182h273l-24 -107h-397z" />
    <glyph glyph-name="Eacute" unicode="&#xc9;" horiz-adv-x="499" 
d="M355 770l-18 94l264 92l18 -115zM68 0l157 683h396l-25 -107h-272l-42 -180h218l-25 -107h-217l-42 -182h273l-24 -107h-397z" />
    <glyph glyph-name="Ecircumflex" unicode="&#xca;" horiz-adv-x="499" 
d="M281 785l173 148h70l96 -148h-109l-33 61l-70 -61h-127zM68 0l157 683h396l-25 -107h-272l-42 -180h218l-25 -107h-217l-42 -182h273l-24 -107h-397z" />
    <glyph glyph-name="Edieresis" unicode="&#xcb;" horiz-adv-x="499" 
d="M298 794l29 125h98l-29 -125h-98zM494 794l29 125h99l-31 -125h-97zM68 0l157 683h396l-25 -107h-272l-42 -180h218l-25 -107h-217l-42 -182h273l-24 -107h-397z" />
    <glyph glyph-name="Igrave" unicode="&#xcc;" horiz-adv-x="349" 
d="M194 589l22 94h232l-22 -94h-55l-113 -495h55l-21 -94h-232l21 94h54l114 495h-55zM230 945l202 -100l-43 -84l-218 79z" />
    <glyph glyph-name="Iacute" unicode="&#xcd;" horiz-adv-x="349" 
d="M194 589l22 94h232l-22 -94h-55l-113 -495h55l-21 -94h-232l21 94h54l114 495h-55zM269 770l-18 94l264 92l18 -115z" />
    <glyph glyph-name="Icircumflex" unicode="&#xce;" horiz-adv-x="349" 
d="M194 589l22 94h232l-22 -94h-55l-113 -495h55l-21 -94h-232l21 94h54l114 495h-55zM175 785l173 148h70l96 -148h-109l-33 61l-70 -61h-127z" />
    <glyph glyph-name="Idieresis" unicode="&#xcf;" horiz-adv-x="349" 
d="M194 589l22 94h232l-22 -94h-55l-113 -495h55l-21 -94h-232l21 94h54l114 495h-55zM399 804l29 125h99l-31 -125h-97zM203 804l29 125h98l-29 -125h-98z" />
    <glyph glyph-name="Eth" unicode="&#xd0;" horiz-adv-x="613" 
d="M318 0h-243l65 284h-56l26 121h58l65 278h216q216 0 216 -207q0 -68 -12.5 -134.5t-40.5 -128.5t-67.5 -109t-98 -75.5t-128.5 -28.5zM538 476q0 55 -28 77.5t-86 22.5h-93l-39 -171h117l-27 -121h-118l-41 -177h107q53 0 95 38.5t65.5 97t35.5 119t12 114.5z" />
    <glyph glyph-name="Ntilde" unicode="&#xd1;" horiz-adv-x="646" 
d="M673 929l2 -84q-64 -62 -110 -62q-26 0 -79 23.5t-69 23.5q-11 0 -32 -10.5t-37 -21.5l-16 -10l-4 84q68 62 114 62q32 0 84 -22.5t61 -22.5q11 0 32.5 10t37.5 20zM68 0l158 683h198l53 -553h14l126 553h118l-157 -683h-189l-60 562h-14l-131 -562h-116z" />
    <glyph glyph-name="Ograve" unicode="&#xd2;" horiz-adv-x="618" 
d="M400 945l202 -100l-43 -84l-218 79zM338 95q54 0 92 36q52 49 82.5 148.5t30.5 195.5q0 61 -24 87t-82 26q-53 0 -88 -32q-55 -51 -87 -155t-32 -193q0 -61 24.5 -87t83.5 -26zM318 -12q-214 0 -214 208q0 131 40.5 247.5t116.5 182.5q78 69 189 69q220 0 220 -208
q0 -137 -41.5 -256.5t-123.5 -183.5q-76 -59 -187 -59z" />
    <glyph glyph-name="Oacute" unicode="&#xd3;" horiz-adv-x="618" 
d="M338 95q54 0 92 36q52 49 82.5 148.5t30.5 195.5q0 61 -24 87t-82 26q-53 0 -88 -32q-55 -51 -87 -155t-32 -193q0 -61 24.5 -87t83.5 -26zM318 -12q-214 0 -214 208q0 131 40.5 247.5t116.5 182.5q78 69 189 69q220 0 220 -208q0 -137 -41.5 -256.5t-123.5 -183.5
q-76 -59 -187 -59zM397 770l-18 94l264 92l18 -115z" />
    <glyph glyph-name="Ocircumflex" unicode="&#xd4;" horiz-adv-x="618" 
d="M338 95q54 0 92 36q52 49 82.5 148.5t30.5 195.5q0 61 -24 87t-82 26q-53 0 -88 -32q-55 -51 -87 -155t-32 -193q0 -61 24.5 -87t83.5 -26zM318 -12q-214 0 -214 208q0 131 40.5 247.5t116.5 182.5q78 69 189 69q220 0 220 -208q0 -137 -41.5 -256.5t-123.5 -183.5
q-76 -59 -187 -59zM319 783l173 148h70l96 -148h-109l-33 61l-70 -61h-127z" />
    <glyph glyph-name="Otilde" unicode="&#xd5;" horiz-adv-x="618" 
d="M678 929l2 -84q-64 -62 -110 -62q-26 0 -79 23.5t-69 23.5q-11 0 -32 -10.5t-37 -21.5l-16 -10l-4 84q68 62 114 62q32 0 84 -22.5t61 -22.5q11 0 32.5 10t37.5 20zM338 95q54 0 92 36q52 49 82.5 148.5t30.5 195.5q0 61 -24 87t-82 26q-53 0 -88 -32q-55 -51 -87 -155
t-32 -193q0 -61 24.5 -87t83.5 -26zM318 -12q-214 0 -214 208q0 131 40.5 247.5t116.5 182.5q78 69 189 69q220 0 220 -208q0 -137 -41.5 -256.5t-123.5 -183.5q-76 -59 -187 -59z" />
    <glyph glyph-name="Odieresis" unicode="&#xd6;" horiz-adv-x="618" 
d="M333 789l29 124h108l-29 -124h-108zM534 789l28 124h108l-29 -124h-107zM338 95q54 0 92 36q52 49 82.5 148.5t30.5 195.5q0 61 -24 87t-82 26q-53 0 -88 -32q-55 -51 -87 -155t-32 -193q0 -61 24.5 -87t83.5 -26zM318 -12q-214 0 -214 208q0 131 40.5 247.5t116.5 182.5
q78 69 189 69q220 0 220 -208q0 -137 -41.5 -256.5t-123.5 -183.5q-76 -59 -187 -59z" />
    <glyph glyph-name="multiply" unicode="&#xd7;" 
d="M194 470l144 -147l145 148l75 -76l-148 -145l148 -144l-76 -76l-144 147l-145 -146l-75 75l147 144l-147 144z" />
    <glyph glyph-name="Oslash" unicode="&#xd8;" horiz-adv-x="618" 
d="M117 -119l-60 36l90 134q-43 51 -43 145q0 131 40.5 247.5t116.5 182.5q78 69 189 69q71 0 119 -22l89 130l68 -29l-99 -145q43 -52 43 -142q0 -137 -41.5 -256.5t-123.5 -183.5q-76 -59 -187 -59q-66 0 -114 21zM232 176l125 185l145 214q-23 13 -65 13q-53 0 -88 -32
q-55 -51 -87 -155t-32 -193q0 -23 2 -32zM338 95q54 0 92 36q52 49 82.5 148.5t30.5 195.5q0 10 -2 28l-120 -177l-149 -219q24 -12 66 -12z" />
    <glyph glyph-name="Ugrave" unicode="&#xd9;" horiz-adv-x="595" 
d="M390 945l202 -100l-43 -84l-218 79zM342 683l-106 -456q-9 -38 -9 -67q0 -36 24 -50t70 -14q66 0 95 30t45 100l106 457h123l-106 -457q-29 -125 -93 -181.5t-181 -56.5q-96 0 -150.5 38t-54.5 114q0 48 13 106l101 437h123z" />
    <glyph glyph-name="Uacute" unicode="&#xda;" horiz-adv-x="595" 
d="M342 683l-106 -456q-9 -38 -9 -67q0 -36 24 -50t70 -14q66 0 95 30t45 100l106 457h123l-106 -457q-29 -125 -93 -181.5t-181 -56.5q-96 0 -150.5 38t-54.5 114q0 48 13 106l101 437h123zM367 770l-18 94l264 92l18 -115z" />
    <glyph glyph-name="Ucircumflex" unicode="&#xdb;" horiz-adv-x="595" 
d="M342 683l-106 -456q-9 -38 -9 -67q0 -36 24 -50t70 -14q66 0 95 30t45 100l106 457h123l-106 -457q-29 -125 -93 -181.5t-181 -56.5q-96 0 -150.5 38t-54.5 114q0 48 13 106l101 437h123zM302 783l173 148h70l96 -148h-109l-33 61l-70 -61h-127z" />
    <glyph glyph-name="Udieresis" unicode="&#xdc;" horiz-adv-x="595" 
d="M315 789l28 124h108l-29 -124h-107zM515 789l29 124h108l-30 -124h-107zM342 683l-106 -456q-9 -38 -9 -67q0 -36 24 -50t70 -14q66 0 95 30t45 100l106 457h123l-106 -457q-29 -125 -93 -181.5t-181 -56.5q-96 0 -150.5 38t-54.5 114q0 48 13 106l101 437h123z" />
    <glyph glyph-name="Yacute" unicode="&#xdd;" horiz-adv-x="501" 
d="M344 770l-18 94l264 92l18 -115zM656 683l-283 -393l-69 -290h-114l69 296l-98 387h124l57 -279l184 279h130z" />
    <glyph glyph-name="Thorn" unicode="&#xde;" horiz-adv-x="541" 
d="M346 225q102 0 135 126q12 51 -5 84.5t-72 34.5l-111 2l-58 -247h111zM318 104l-112 1l-24 -105h-116l163 691h117l-25 -100h111q100 0 144.5 -69t22.5 -171q-26 -115 -100 -181.5t-181 -65.5z" />
    <glyph glyph-name="germandbls" unicode="&#xdf;" horiz-adv-x="558" 
d="M169 0h-112l123 522q26 109 82 151.5t159 42.5q93 0 141 -36t48 -103q0 -53 -20.5 -87.5t-71.5 -55.5t-69.5 -34t-18.5 -32q0 -16 12 -27.5t53 -37.5q46 -30 62.5 -51.5t16.5 -68.5q0 -90 -55.5 -142.5t-153.5 -52.5q-31 0 -69 6.5t-60 13.5l-23 6l25 88q69 -12 114 -12
q50 0 75.5 22t25.5 55q0 21 -11 32.5t-53 36.5q-46 28 -63 51t-17 59q0 55 24.5 85.5t80.5 57.5q47 22 61 36.5t14 39.5q0 49 -80 49q-52 0 -80 -25t-41 -83z" />
    <glyph glyph-name="agrave" unicode="&#xe0;" horiz-adv-x="521" 
d="M541 337l-19 -80l-24 -106q-12 -52 31 -79l-21 -84q-43 4 -70 18t-48 45q-9 -7 -25 -17.5t-59 -28t-78 -17.5q-60 0 -94.5 38t-34.5 102q0 166 217 178l101 6l6 25q9 35 -9.5 54t-53.5 19q-30 0 -76.5 -4t-77.5 -8l-32 -4l-4 84q106 34 218 34q82 0 126.5 -48t26.5 -127z
M349 764l212 -90l-50 -88l-219 81zM399 229l-76 -5q-51 -4 -77 -22t-26 -60q0 -52 42 -52q24 0 52.5 12.5t45.5 25.5l16 12z" />
    <glyph glyph-name="aacute" unicode="&#xe1;" horiz-adv-x="521" 
d="M541 337l-19 -80l-24 -106q-12 -52 31 -79l-21 -84q-43 4 -70 18t-48 45q-9 -7 -25 -17.5t-59 -28t-78 -17.5q-60 0 -94.5 38t-34.5 102q0 166 217 178l101 6l6 25q9 35 -9.5 54t-53.5 19q-30 0 -76.5 -4t-77.5 -8l-32 -4l-4 84q106 34 218 34q82 0 126.5 -48t26.5 -127z
M337 581l-9 95l255 91l9 -106zM399 229l-76 -5q-51 -4 -77 -22t-26 -60q0 -52 42 -52q24 0 52.5 12.5t45.5 25.5l16 12z" />
    <glyph glyph-name="acircumflex" unicode="&#xe2;" horiz-adv-x="521" 
d="M541 337l-19 -80l-24 -106q-12 -52 31 -79l-21 -84q-43 4 -70 18t-48 45q-9 -7 -25 -17.5t-59 -28t-78 -17.5q-60 0 -94.5 38t-34.5 102q0 166 217 178l101 6l6 25q9 35 -9.5 54t-53.5 19q-30 0 -76.5 -4t-77.5 -8l-32 -4l-4 84q106 34 218 34q82 0 126.5 -48t26.5 -127z
M219 578l165 169h88l86 -169h-118l-30 70l-65 -70h-126zM399 229l-76 -5q-51 -4 -77 -22t-26 -60q0 -52 42 -52q24 0 52.5 12.5t45.5 25.5l16 12z" />
    <glyph glyph-name="atilde" unicode="&#xe3;" horiz-adv-x="521" 
d="M541 337l-19 -80l-24 -106q-12 -52 31 -79l-21 -84q-43 4 -70 18t-48 45q-9 -7 -25 -17.5t-59 -28t-78 -17.5q-60 0 -94.5 38t-34.5 102q0 166 217 178l101 6l6 25q9 35 -9.5 54t-53.5 19q-30 0 -76.5 -4t-77.5 -8l-32 -4l-4 84q106 34 218 34q82 0 126.5 -48t26.5 -127z
M598 740l4 -83q-7 -7 -19 -17t-41.5 -27t-50.5 -17q-24 0 -70 22.5t-59 22.5q-12 0 -33 -10.5t-37 -20.5l-15 -10l-2 83q64 62 110 62q29 0 74.5 -22t54.5 -22q10 0 31 9.5t37 19.5zM399 229l-76 -5q-51 -4 -77 -22t-26 -60q0 -52 42 -52q24 0 52.5 12.5t45.5 25.5l16 12z
" />
    <glyph glyph-name="adieresis" unicode="&#xe4;" horiz-adv-x="521" 
d="M541 337l-19 -80l-24 -106q-12 -52 31 -79l-21 -84q-43 4 -70 18t-48 45q-9 -7 -25 -17.5t-59 -28t-78 -17.5q-60 0 -94.5 38t-34.5 102q0 166 217 178l101 6l6 25q9 35 -9.5 54t-53.5 19q-30 0 -76.5 -4t-77.5 -8l-32 -4l-4 84q106 34 218 34q82 0 126.5 -48t26.5 -127z
M399 229l-76 -5q-51 -4 -77 -22t-26 -60q0 -52 42 -52q24 0 52.5 12.5t45.5 25.5l16 12zM448 606l29 124h108l-30 -124h-107zM248 606l29 124h108l-30 -124h-107z" />
    <glyph glyph-name="aring" unicode="&#xe5;" horiz-adv-x="521" 
d="M541 337l-19 -80l-24 -106q-12 -52 31 -79l-21 -84q-43 4 -70 18t-48 45q-9 -7 -25 -17.5t-59 -28t-78 -17.5q-60 0 -94.5 38t-34.5 102q0 166 217 178l101 6l6 25q9 35 -9.5 54t-53.5 19q-30 0 -76.5 -4t-77.5 -8l-32 -4l-4 84q106 34 218 34q82 0 126.5 -48t26.5 -127z
M333 658q11 45 44.5 74.5t80.5 29.5q45 0 62.5 -28t8.5 -74q-10 -50 -44.5 -79.5t-81.5 -29.5q-46 0 -64 30t-6 77zM399 229l-76 -5q-51 -4 -77 -22t-26 -60q0 -52 42 -52q24 0 52.5 12.5t45.5 25.5l16 12zM398 658q-4 -14 3.5 -24.5t21.5 -10.5q31 0 42 34q4 14 -4 23.5
t-21 9.5q-15 0 -26.5 -9t-15.5 -23z" />
    <glyph glyph-name="ae" unicode="&#xe6;" horiz-adv-x="723" 
d="M523 97q31 0 74 2.5t71 4.5l28 2l-21 -92q-93 -26 -185 -26q-101 0 -136 51q-32 -16 -91.5 -33.5t-95.5 -17.5q-62 0 -92.5 50t-15.5 113q29 126 159 148q72 12 142 11q6 19 8 37t-6.5 35t-31.5 17q-31 0 -76.5 -3.5t-75.5 -7.5l-30 -3l19 105q124 21 194 21
q86 0 113 -49q58 49 141 49q72 0 110 -35t41 -99q3 -43 -13 -101l-21 -78l-278 2q-7 -31 -4 -50q7 -53 73 -53zM209 92q51 0 119 19q-6 39 11 109q-37 -1 -93 -7q-59 -5 -72 -59q-5 -23 3 -42.5t32 -19.5zM475 292l171 -2q10 39 7 69q-6 49 -65 49q-46 0 -72.5 -29
t-40.5 -87z" />
    <glyph glyph-name="ccedilla" unicode="&#xe7;" horiz-adv-x="409" 
d="M347 512q30 0 65.5 -7t56.5 -14l21 -7l-30 -88q-74 12 -118 12q-65 0 -100 -68.5t-35 -157.5q0 -45 19 -67.5t63 -22.5q19 0 46.5 2t44.5 4l18 3l-10 -88q-65 -22 -130 -25l-6 -24h6q107 0 87 -88q-24 -101 -124 -101q-18 0 -39 2.5t-32 4.5l-12 3l18 74q32 -2 50 -2
q38 0 44 27q4 15 -4 19.5t-27 4.5h-27l19 83q-59 10 -92 53t-33 113q0 153 67.5 254t193.5 101z" />
    <glyph glyph-name="egrave" unicode="&#xe8;" horiz-adv-x="472" 
d="M282 90q31 0 72 4t67 8l26 4l-13 -89q-91 -29 -186 -29q-165 0 -165 166q0 94 27 172.5t90.5 131.5t155.5 53q169 0 169 -142q0 -94 -65 -130t-213 -36h-39q-5 -20 -5 -45q0 -33 22 -50.5t57 -17.5zM221 292h45q77 0 109 17t32 58q0 50 -57 50q-97 0 -129 -125zM260 764
l212 -90l-50 -88l-219 81z" />
    <glyph glyph-name="eacute" unicode="&#xe9;" horiz-adv-x="472" 
d="M282 90q31 0 72 4t67 8l26 4l-13 -89q-91 -29 -186 -29q-165 0 -165 166q0 94 27 172.5t90.5 131.5t155.5 53q169 0 169 -142q0 -94 -65 -130t-213 -36h-39q-5 -20 -5 -45q0 -33 22 -50.5t57 -17.5zM221 292h45q77 0 109 17t32 58q0 50 -57 50q-97 0 -129 -125zM286 581
l-9 95l255 91l9 -106z" />
    <glyph glyph-name="ecircumflex" unicode="&#xea;" horiz-adv-x="472" 
d="M194 578l164 169h89l86 -169h-118l-30 70l-66 -70h-125zM282 90q31 0 72 4t67 8l26 4l-13 -89q-91 -29 -186 -29q-165 0 -165 166q0 94 27 172.5t90.5 131.5t155.5 53q169 0 169 -142q0 -94 -65 -130t-213 -36h-39q-5 -20 -5 -45q0 -33 22 -50.5t57 -17.5zM221 292h45
q77 0 109 17t32 58q0 50 -57 50q-97 0 -129 -125z" />
    <glyph glyph-name="edieresis" unicode="&#xeb;" horiz-adv-x="472" 
d="M221 606l29 124h108l-29 -124h-108zM422 606l28 124h108l-29 -124h-107zM282 90q31 0 72 4t67 8l26 4l-13 -89q-91 -29 -186 -29q-165 0 -165 166q0 94 27 172.5t90.5 131.5t155.5 53q169 0 169 -142q0 -94 -65 -130t-213 -36h-39q-5 -20 -5 -45q0 -33 22 -50.5t57 -17.5
zM221 292h45q77 0 109 17t32 58q0 50 -57 50q-97 0 -129 -125z" />
    <glyph glyph-name="igrave" unicode="&#xec;" horiz-adv-x="234" 
d="M58 0l115 500h119l-115 -500h-119zM129 764l212 -90l-50 -88l-219 81z" />
    <glyph glyph-name="iacute" unicode="&#xed;" horiz-adv-x="234" 
d="M58 0l115 500h119l-115 -500h-119zM185 581l-9 95l255 91l9 -106z" />
    <glyph glyph-name="icircumflex" unicode="&#xee;" horiz-adv-x="234" 
d="M73 578l164 169h89l86 -169h-118l-30 70l-66 -70h-125zM58 0l115 500h119l-115 -500h-119z" />
    <glyph glyph-name="idieresis" unicode="&#xef;" horiz-adv-x="234" 
d="M93 606l28 124h108l-29 -124h-107zM293 606l28 124h108l-29 -124h-107zM58 0l115 500h119l-115 -500h-119z" />
    <glyph glyph-name="eth" unicode="&#xf0;" horiz-adv-x="524" 
d="M382 556l-107 -73l-41 65l56 37q-33 8 -72 15l40 104q91 -7 160 -32l99 67l39 -65l-62 -42q121 -90 75 -278q-46 -189 -119 -276t-201 -87q-101 0 -145 64t-23 153q21 102 90.5 165t167.5 63q29 0 59.5 -6t46.5 -12l16 -7q17 98 -79 145zM322 328q-44 0 -76.5 -33.5
t-41.5 -84.5q-12 -51 3 -78t68 -27q112 0 163 198l-4 1l-9 4.5t-13 5t-18 5t-21 4.5t-24.5 3.5t-26.5 1.5z" />
    <glyph glyph-name="ntilde" unicode="&#xf1;" horiz-adv-x="509" 
d="M177 0h-119l115 500h114l-9 -59q7 8 20 20t48.5 31.5t67.5 19.5q62 0 91.5 -38t29.5 -100q0 -31 -21 -127l-57 -247h-119l55 238q18 81 18 108q0 32 -10 47t-38 15q-18 0 -45 -18t-46 -36l-18 -19zM572 740l4 -83q-7 -7 -19 -17t-41.5 -27t-50.5 -17q-24 0 -70 22.5
t-59 22.5q-12 0 -33 -10.5t-37 -20.5l-15 -10l-2 83q64 62 110 62q29 0 74.5 -22t54.5 -22q10 0 31 9.5t37 19.5z" />
    <glyph glyph-name="ograve" unicode="&#xf2;" horiz-adv-x="496" 
d="M335 511q192 0 192 -185q0 -84 -28 -159.5t-87.5 -127t-138.5 -51.5q-190 0 -190 183q0 83 29.5 159.5t88.5 128.5t134 52zM273 90q60 0 97.5 72.5t37.5 165.5q0 81 -73 81q-59 0 -96.5 -73.5t-37.5 -165.5q0 -80 72 -80zM290 764l212 -90l-50 -88l-219 81z" />
    <glyph glyph-name="oacute" unicode="&#xf3;" horiz-adv-x="496" 
d="M335 511q192 0 192 -185q0 -84 -28 -159.5t-87.5 -127t-138.5 -51.5q-190 0 -190 183q0 83 29.5 159.5t88.5 128.5t134 52zM273 90q60 0 97.5 72.5t37.5 165.5q0 81 -73 81q-59 0 -96.5 -73.5t-37.5 -165.5q0 -80 72 -80zM287 581l-9 95l255 91l9 -106z" />
    <glyph glyph-name="ocircumflex" unicode="&#xf4;" horiz-adv-x="496" 
d="M209 578l165 169h88l86 -169h-118l-30 70l-66 -70h-125zM335 511q192 0 192 -185q0 -84 -28 -159.5t-87.5 -127t-138.5 -51.5q-190 0 -190 183q0 83 29.5 159.5t88.5 128.5t134 52zM273 90q60 0 97.5 72.5t37.5 165.5q0 81 -73 81q-59 0 -96.5 -73.5t-37.5 -165.5
q0 -80 72 -80z" />
    <glyph glyph-name="otilde" unicode="&#xf5;" horiz-adv-x="496" 
d="M335 511q192 0 192 -185q0 -84 -28 -159.5t-87.5 -127t-138.5 -51.5q-190 0 -190 183q0 83 29.5 159.5t88.5 128.5t134 52zM273 90q60 0 97.5 72.5t37.5 165.5q0 81 -73 81q-59 0 -96.5 -73.5t-37.5 -165.5q0 -80 72 -80zM549 740l4 -83q-7 -7 -19 -17t-41.5 -27
t-50.5 -17q-24 0 -70 22.5t-59 22.5q-12 0 -33 -10.5t-36 -20.5l-16 -10l-2 83q64 62 110 62q29 0 74.5 -22t54.5 -22q10 0 31 9.5t37 19.5z" />
    <glyph glyph-name="odieresis" unicode="&#xf6;" horiz-adv-x="496" 
d="M335 511q192 0 192 -185q0 -84 -28 -159.5t-87.5 -127t-138.5 -51.5q-190 0 -190 183q0 83 29.5 159.5t88.5 128.5t134 52zM273 90q60 0 97.5 72.5t37.5 165.5q0 81 -73 81q-59 0 -96.5 -73.5t-37.5 -165.5q0 -80 72 -80zM237 606l28 124h99l-29 -124h-98zM428 606
l28 124h99l-30 -124h-97z" />
    <glyph glyph-name="divide" unicode="&#xf7;" 
d="M140 220v114h108v118h179v-118h109v-114h-396zM278 20v124h118v-124h-118z" />
    <glyph glyph-name="oslash" unicode="&#xf8;" horiz-adv-x="495" 
d="M336 513q48 0 86 -12l64 105l65 -28l-71 -111q48 -46 48 -139q0 -84 -28 -159.5t-87.5 -127t-138.5 -51.5q-48 0 -86 12l-67 -110l-64 28l74 115q-47 45 -47 138q0 83 29.5 159.5t88.5 128.5t134 52zM204 149l74 115l87 142q-15 5 -29 5q-59 0 -96.5 -73.5t-37.5 -165.5
q0 -16 2 -23zM274 92q60 0 97.5 72.5t37.5 165.5q0 9 -2 23l-75 -117l-86 -140q11 -4 28 -4z" />
    <glyph glyph-name="ugrave" unicode="&#xf9;" horiz-adv-x="509" 
d="M293 764l212 -90l-50 -88l-219 81zM447 500h120l-116 -500h-114l9 59q-7 -8 -20 -20t-48.5 -31.5t-66.5 -19.5q-62 0 -91.5 38t-29.5 100q0 38 20 127l57 247h119l-55 -238q-18 -81 -18 -108q0 -62 48 -62q18 0 45 18t46 36l18 19z" />
    <glyph glyph-name="uacute" unicode="&#xfa;" horiz-adv-x="509" 
d="M447 500h120l-116 -500h-114l9 59q-7 -8 -20 -20t-48.5 -31.5t-66.5 -19.5q-62 0 -91.5 38t-29.5 100q0 38 20 127l57 247h119l-55 -238q-18 -81 -18 -108q0 -62 48 -62q18 0 45 18t46 36l18 19zM293 581l-9 95l255 91l9 -106z" />
    <glyph glyph-name="ucircumflex" unicode="&#xfb;" horiz-adv-x="509" 
d="M203 578l164 169h89l86 -169h-118l-30 70l-66 -70h-125zM447 500h120l-116 -500h-114l9 59q-7 -8 -20 -20t-48.5 -31.5t-66.5 -19.5q-62 0 -91.5 38t-29.5 100q0 38 20 127l57 247h119l-55 -238q-18 -81 -18 -108q0 -62 48 -62q18 0 45 18t46 36l18 19z" />
    <glyph glyph-name="udieresis" unicode="&#xfc;" horiz-adv-x="509" 
d="M224 606l29 124h108l-30 -124h-107zM424 606l29 124h108l-30 -124h-107zM447 500h120l-116 -500h-114l9 59q-7 -8 -20 -20t-48.5 -31.5t-66.5 -19.5q-62 0 -91.5 38t-29.5 100q0 38 20 127l57 247h119l-55 -238q-18 -81 -18 -108q0 -62 48 -62q18 0 45 18t46 36l18 19z
" />
    <glyph glyph-name="yacute" unicode="&#xfd;" horiz-adv-x="462" 
d="M129 500h117l-9 -401h19l185 401h121l-341 -713h-118l106 213h-80v500zM277 581l-9 95l255 91l9 -106z" />
    <glyph glyph-name="thorn" unicode="&#xfe;" horiz-adv-x="492" 
d="M392 511q54 0 87 -24t43 -64t8.5 -81.5t-13.5 -85.5q-41 -148 -103 -208t-170 -60q-17 0 -36.5 1.5t-30.5 2.5t-11 2l-48 -205h-112l216 913h112l-55 -238q63 47 113 47zM252 357l-60 -255l74 -7q51 0 83 41t53 120q6 23 8 46t-0.5 46.5t-17.5 38t-40 14.5
q-18 0 -43 -11.5t-41 -21.5z" />
    <glyph glyph-name="ydieresis" unicode="&#xff;" horiz-adv-x="462" 
d="M205 606l29 124h108l-29 -124h-108zM406 606l28 124h108l-29 -124h-107zM129 500h117l-9 -401h19l185 401h121l-341 -713h-118l106 213h-80v500z" />
    <glyph glyph-name="Amacron" unicode="&#x100;" horiz-adv-x="552" 
d="M295 812l22 97h318l-22 -97h-318zM16 0l316 683h215l-12 -683h-123l2 133h-213l-62 -133h-123zM403 576l-155 -337h170l9 337h-24z" />
    <glyph glyph-name="amacron" unicode="&#x101;" horiz-adv-x="521" 
d="M541 337l-19 -80l-24 -106q-12 -52 31 -79l-21 -84q-43 4 -70 18t-48 45q-9 -7 -25 -17.5t-59 -28t-78 -17.5q-60 0 -94.5 38t-34.5 102q0 166 217 178l101 6l6 25q9 35 -9.5 54t-53.5 19q-30 0 -76.5 -4t-77.5 -8l-32 -4l-4 84q106 34 218 34q82 0 126.5 -48t26.5 -127z
M279 630l22 97h301l-23 -97h-300zM399 229l-76 -5q-51 -4 -77 -22t-26 -60q0 -52 42 -52q24 0 52.5 12.5t45.5 25.5l16 12z" />
    <glyph glyph-name="Abreve" unicode="&#x102;" horiz-adv-x="552" 
d="M329 926h108q-7 -46 41 -46q46 0 63 46h108q-23 -69 -67.5 -104.5t-123.5 -35.5q-71 0 -104.5 36t-24.5 104zM16 0l316 683h215l-12 -683h-123l2 133h-213l-62 -133h-123zM403 576l-155 -337h170l9 337h-24z" />
    <glyph glyph-name="abreve" unicode="&#x103;" horiz-adv-x="521" 
d="M541 337l-19 -80l-24 -106q-12 -52 31 -79l-21 -84q-43 4 -70 18t-48 45q-9 -7 -25 -17.5t-59 -28t-78 -17.5q-60 0 -94.5 38t-34.5 102q0 166 217 178l101 6l6 25q9 35 -9.5 54t-53.5 19q-30 0 -76.5 -4t-77.5 -8l-32 -4l-4 84q106 34 218 34q82 0 126.5 -48t26.5 -127z
M291 742h107q-7 -52 47 -52t71 52h107q-49 -151 -209 -151q-146 0 -123 151zM399 229l-76 -5q-51 -4 -77 -22t-26 -60q0 -52 42 -52q24 0 52.5 12.5t45.5 25.5l16 12z" />
    <glyph glyph-name="Aogonek" unicode="&#x104;" horiz-adv-x="552" 
d="M16 0l316 683h215l-12 -678h1l-1 -1v-4h-7q-24 -18 -47.5 -46t-23.5 -45q0 -15 16 -15l40 3l-12 -98q-54 -11 -93 -11q-37 0 -58.5 19t-21.5 55q0 34 28.5 72t63.5 66h-8l2 133h-213l-62 -133h-123zM403 576l-155 -337h170l9 337h-24z" />
    <glyph glyph-name="aogonek" unicode="&#x105;" horiz-adv-x="521" 
d="M444 -103l-12 -98q-54 -11 -93 -11q-37 0 -58.5 19t-21.5 55q0 40 37 83.5t74 68.5l64 -6q-24 13 -44 43q-9 -7 -25 -17.5t-59 -28t-78 -17.5q-60 0 -94.5 38t-34.5 102q0 166 217 178l101 6l6 25q9 35 -9.5 54t-53.5 19q-30 0 -76.5 -4t-77.5 -8l-32 -4l-4 84
q106 34 218 34q82 0 126.5 -48t26.5 -127l-19 -80l-24 -106q-12 -52 31 -79l-21 -84q-30 3 -51 10q-24 -19 -46.5 -46t-22.5 -43q0 -15 16 -15zM399 229l-76 -5q-51 -4 -77 -22t-26 -60q0 -52 42 -52q24 0 52.5 12.5t45.5 25.5l16 12z" />
    <glyph glyph-name="Cacute" unicode="&#x106;" horiz-adv-x="496" 
d="M482 109l-9 -95q-92 -26 -169 -26q-101 0 -151.5 51t-50.5 147q0 66 11.5 134t38.5 136t66 120.5t99.5 85.5t134.5 33q36 0 78.5 -7.5t67.5 -14.5l24 -7l-29 -91q-65 12 -146 12q-67 0 -118 -59t-75.5 -147.5t-24.5 -186.5t91 -98q35 0 75.5 3t63.5 7zM390 770l-18 94
l264 92l18 -115z" />
    <glyph glyph-name="cacute" unicode="&#x107;" horiz-adv-x="408" 
d="M346 512q30 0 65.5 -7t56.5 -14l21 -7l-30 -88q-74 12 -118 12q-65 0 -100 -68.5t-35 -157.5q0 -45 19 -67.5t63 -22.5q19 0 46.5 2t45.5 4l17 3l-10 -88q-72 -25 -141 -25q-74 0 -117.5 44.5t-43.5 124.5q0 153 67.5 254t193.5 101zM274 581l-9 95l255 91l9 -106z" />
    <glyph glyph-name="Ccircumflex" unicode="&#x108;" horiz-adv-x="496" 
d="M482 109l-9 -95q-92 -26 -169 -26q-101 0 -151.5 51t-50.5 147q0 66 11.5 134t38.5 136t66 120.5t99.5 85.5t134.5 33q36 0 78.5 -7.5t67.5 -14.5l24 -7l-29 -91q-65 12 -146 12q-67 0 -118 -59t-75.5 -147.5t-24.5 -186.5t91 -98q35 0 75.5 3t63.5 7zM303 783l173 148
h70l96 -148h-109l-33 61l-70 -61h-127z" />
    <glyph glyph-name="ccircumflex" unicode="&#x109;" horiz-adv-x="408" 
d="M346 512q30 0 65.5 -7t56.5 -14l21 -7l-30 -88q-74 12 -118 12q-65 0 -100 -68.5t-35 -157.5q0 -45 19 -67.5t63 -22.5q19 0 46.5 2t45.5 4l17 3l-10 -88q-72 -25 -141 -25q-74 0 -117.5 44.5t-43.5 124.5q0 153 67.5 254t193.5 101zM202 578l164 169h71l86 -169h-109
l-30 70l-66 -70h-116z" />
    <glyph glyph-name="Cdotaccent" unicode="&#x10a;" horiz-adv-x="496" 
d="M482 109l-9 -95q-92 -26 -169 -26q-101 0 -151.5 51t-50.5 147q0 66 11.5 134t38.5 136t66 120.5t99.5 85.5t134.5 33q36 0 78.5 -7.5t67.5 -14.5l24 -7l-29 -91q-65 12 -146 12q-67 0 -118 -59t-75.5 -147.5t-24.5 -186.5t91 -98q35 0 75.5 3t63.5 7zM416 776l29 126
h105l-31 -126h-103z" />
    <glyph glyph-name="cdotaccent" unicode="&#x10b;" horiz-adv-x="408" 
d="M346 512q30 0 65.5 -7t56.5 -14l21 -7l-30 -88q-74 12 -118 12q-65 0 -100 -68.5t-35 -157.5q0 -45 19 -67.5t63 -22.5q19 0 46.5 2t45.5 4l17 3l-10 -88q-72 -25 -141 -25q-74 0 -117.5 44.5t-43.5 124.5q0 153 67.5 254t193.5 101zM308 588l29 125h103l-29 -125h-103z
" />
    <glyph glyph-name="Ccaron" unicode="&#x10c;" horiz-adv-x="496" 
d="M482 109l-9 -95q-92 -26 -169 -26q-101 0 -151.5 51t-50.5 147q0 66 11.5 134t38.5 136t66 120.5t99.5 85.5t134.5 33q36 0 78.5 -7.5t67.5 -14.5l24 -7l-29 -91q-65 12 -146 12q-67 0 -118 -59t-75.5 -147.5t-24.5 -186.5t91 -98q35 0 75.5 3t63.5 7zM675 928l-160 -148
h-80l-94 148h117l36 -64l63 64h118z" />
    <glyph glyph-name="ccaron" unicode="&#x10d;" horiz-adv-x="408" 
d="M407 578h-75l-82 169h109l35 -72l62 72h116zM346 512q30 0 65.5 -7t56.5 -14l21 -7l-30 -88q-74 12 -118 12q-65 0 -100 -68.5t-35 -157.5q0 -45 19 -67.5t63 -22.5q19 0 46.5 2t45.5 4l17 3l-10 -88q-72 -25 -141 -25q-74 0 -117.5 44.5t-43.5 124.5q0 153 67.5 254
t193.5 101z" />
    <glyph glyph-name="Dcaron" unicode="&#x10e;" horiz-adv-x="605" 
d="M311 0h-243l158 683h216q216 0 216 -207q0 -68 -12.5 -134.5t-40.5 -128.5t-67.5 -109t-98 -75.5t-128.5 -28.5zM531 476q0 55 -28.5 77.5t-85.5 22.5h-93l-108 -469h107q53 0 95 38.5t65.5 97t35.5 119t12 114.5zM642 928l-160 -148h-80l-94 148h117l36 -64l63 64h118z
" />
    <glyph glyph-name="dcaron" unicode="&#x10f;" horiz-adv-x="616" 
d="M783 683l-58 -246h-110l60 246h108zM626 704l-163 -704h-116l12 61q-7 -8 -19 -20t-48 -32.5t-70 -20.5q-69 0 -104.5 44t-35.5 126q0 85 27.5 164t87 134t137.5 55q20 0 51 -5.5t51 -10.5l21 -5l50 214h119zM385 174l51 221q-60 14 -102 14q-40 0 -71 -42.5t-45.5 -98.5
t-14.5 -109q0 -69 57 -69q20 0 51 21t53 42z" />
    <glyph glyph-name="Dcroat" unicode="&#x110;" horiz-adv-x="613" 
d="M318 0h-243l65 284h-57l26 121h59l65 278h216q216 0 216 -207q0 -68 -12.5 -134.5t-40.5 -128.5t-67.5 -109t-98 -75.5t-128.5 -28.5zM538 476q0 55 -28 77.5t-86 22.5h-93l-39 -171h116l-27 -121h-117l-41 -177h107q53 0 95 38.5t65.5 97t35.5 119t12 114.5z" />
    <glyph glyph-name="dcroat" unicode="&#x111;" horiz-adv-x="521" 
d="M626 704l-10 -40h55l-25 -107h-54l-129 -557h-116l12 61q-7 -8 -19 -20t-48 -32.5t-70 -20.5q-69 0 -104.5 44t-35.5 126q0 85 27.5 164t87 134t137.5 55q20 0 51 -5.5t51 -10.5l21 -5l15 67h-126l24 107h127l10 40h119zM385 174l51 221q-60 14 -102 14q-40 0 -71 -42.5
t-45.5 -98.5t-14.5 -109q0 -69 57 -69q20 0 51 21t53 42z" />
    <glyph glyph-name="Emacron" unicode="&#x112;" horiz-adv-x="499" 
d="M285 810l22 97h318l-22 -97h-318zM68 0l157 683h396l-25 -107h-272l-42 -180h218l-25 -107h-217l-42 -182h273l-24 -107h-397z" />
    <glyph glyph-name="emacron" unicode="&#x113;" horiz-adv-x="472" 
d="M282 90q31 0 72 4t67 8l26 4l-13 -89q-91 -29 -186 -29q-165 0 -165 166q0 94 27 172.5t90.5 131.5t155.5 53q169 0 169 -142q0 -94 -65 -130t-213 -36h-39q-5 -20 -5 -45q0 -33 22 -50.5t57 -17.5zM221 292h45q77 0 109 17t32 58q0 50 -57 50q-97 0 -129 -125zM227 630
l22 97h301l-23 -97h-300z" />
    <glyph glyph-name="Ebreve" unicode="&#x114;" horiz-adv-x="499" 
d="M305 926h108q-7 -46 41 -46q46 0 63 46h108q-23 -69 -67.5 -104.5t-123.5 -35.5q-71 0 -104.5 36t-24.5 104zM68 0l157 683h396l-25 -107h-272l-42 -180h218l-25 -107h-217l-42 -182h273l-24 -107h-397z" />
    <glyph glyph-name="ebreve" unicode="&#x115;" horiz-adv-x="472" 
d="M282 90q31 0 72 4t67 8l26 4l-13 -89q-91 -29 -186 -29q-165 0 -165 166q0 94 27 172.5t90.5 131.5t155.5 53q169 0 169 -142q0 -94 -65 -130t-213 -36h-39q-5 -20 -5 -45q0 -33 22 -50.5t57 -17.5zM221 292h45q77 0 109 17t32 58q0 50 -57 50q-97 0 -129 -125zM251 742
h107q-7 -52 47 -52t71 52h107q-49 -151 -209 -151q-146 0 -123 151z" />
    <glyph glyph-name="Edotaccent" unicode="&#x116;" horiz-adv-x="499" 
d="M380 785l29 126h105l-31 -126h-103zM68 0l157 683h396l-25 -107h-272l-42 -180h218l-25 -107h-217l-42 -182h273l-24 -107h-397z" />
    <glyph glyph-name="edotaccent" unicode="&#x117;" horiz-adv-x="472" 
d="M282 90q31 0 72 4t67 8l26 4l-13 -89q-91 -29 -186 -29q-165 0 -165 166q0 94 27 172.5t90.5 131.5t155.5 53q169 0 169 -142q0 -94 -65 -130t-213 -36h-39q-5 -20 -5 -45q0 -33 22 -50.5t57 -17.5zM221 292h45q77 0 109 17t32 58q0 50 -57 50q-97 0 -129 -125zM313 588
l29 125h103l-29 -125h-103z" />
    <glyph glyph-name="Eogonek" unicode="&#x118;" horiz-adv-x="499" 
d="M68 0l157 683h396l-25 -107h-272l-42 -180h218l-25 -107h-217l-42 -182h273l-24 -107h-15q-24 -18 -47.5 -46t-23.5 -45q0 -15 16 -15l40 3l-12 -98q-54 -11 -93 -11q-37 0 -58.5 19t-21.5 55q0 34 28.5 72t63.5 66h-274z" />
    <glyph glyph-name="eogonek" unicode="&#x119;" horiz-adv-x="472" 
d="M411 -83l-12 -98q-54 -11 -93 -11q-37 0 -58.5 19t-21.5 55q0 47 58 107q-12 -1 -36 -1q-165 0 -165 166q0 94 27 172.5t90.5 131.5t155.5 53q169 0 169 -142q0 -94 -65 -130t-213 -36h-39q-5 -20 -5 -45q0 -33 22 -50.5t57 -17.5q31 0 72 4t67 8l26 4l-13 -89
q-8 -3 -18 -5q-23 -19 -42 -43.5t-19 -39.5t16 -15zM221 292h45q77 0 109 17t32 58q0 50 -57 50q-97 0 -129 -125z" />
    <glyph glyph-name="Ecaron" unicode="&#x11a;" horiz-adv-x="499" 
d="M635 943l-160 -148h-80l-94 148h117l36 -64l63 64h118zM68 0l157 683h396l-25 -107h-272l-42 -180h218l-25 -107h-217l-42 -182h273l-24 -107h-397z" />
    <glyph glyph-name="ecaron" unicode="&#x11b;" horiz-adv-x="472" 
d="M282 90q31 0 72 4t67 8l26 4l-13 -89q-91 -29 -186 -29q-165 0 -165 166q0 94 27 172.5t90.5 131.5t155.5 53q169 0 169 -142q0 -94 -65 -130t-213 -36h-39q-5 -20 -5 -45q0 -33 22 -50.5t57 -17.5zM221 292h45q77 0 109 17t32 58q0 50 -57 50q-97 0 -129 -125zM406 578
h-75l-82 169h109l35 -72l62 72h116z" />
    <glyph glyph-name="Gcircumflex" unicode="&#x11c;" horiz-adv-x="569" 
d="M310 761l164 169h89l86 -169h-118l-30 70l-66 -70h-125zM383 271l24 102h196l-84 -358q-73 -27 -193 -27q-221 0 -221 210q0 97 22 184.5t64.5 158t113.5 112.5t161 42q48 0 99.5 -9.5t78.5 -19.5l28 -9l-29 -90q-99 21 -188 21q-57 0 -102 -37.5t-70.5 -97.5t-38.5 -126
t-13 -130q0 -102 109 -102q18 0 37.5 2t30.5 4l10 2l39 168h-74z" />
    <glyph glyph-name="gcircumflex" unicode="&#x11d;" horiz-adv-x="480" 
d="M219 -231q-208 0 -208 135q0 48 34.5 80t90.5 60q-19 18 -19 50q0 20 14.5 44t28.5 38l15 15q-68 38 -68 123q0 84 56.5 141t149.5 57q22 0 50.5 -4.5t46.5 -9.5l18 -4l146 6l-22 -97h-66q7 -21 7 -55q0 -77 -59 -132.5t-151 -55.5l-40 5q-19 -25 -19 -44
q0 -13 19.5 -19.5t74.5 -13.5q66 -10 105 -37.5t39 -87.5q0 -86 -65.5 -140t-177.5 -54zM274 -5q-71 11 -86 15q-26 -14 -47 -35.5t-21 -42.5q0 -28 24 -45.5t73 -17.5q55 0 93.5 19t38.5 62q0 22 -17 30.5t-58 14.5zM291 258q41 0 66.5 28t25.5 65q0 63 -75 63
q-40 0 -65.5 -28t-25.5 -66q0 -62 74 -62zM189 578l164 169h71l86 -169h-109l-30 70l-66 -70h-116z" />
    <glyph glyph-name="Gbreve" unicode="&#x11e;" horiz-adv-x="569" 
d="M347 925h117q-1 -3 -1 -15q3 -36 47 -36q55 0 72 51h116q-24 -73 -79.5 -117t-138.5 -44q-65 0 -99 33t-36 86q-1 18 2 42zM383 271l24 102h196l-84 -358q-73 -27 -193 -27q-221 0 -221 210q0 97 22 184.5t64.5 158t113.5 112.5t161 42q48 0 99.5 -9.5t78.5 -19.5l28 -9
l-29 -90q-99 21 -188 21q-57 0 -102 -37.5t-70.5 -97.5t-38.5 -126t-13 -130q0 -102 109 -102q18 0 37.5 2t30.5 4l10 2l39 168h-74z" />
    <glyph glyph-name="gbreve" unicode="&#x11f;" horiz-adv-x="480" 
d="M219 -231q-208 0 -208 135q0 48 34.5 80t90.5 60q-19 18 -19 50q0 20 14.5 44t28.5 38l15 15q-68 38 -68 123q0 84 56.5 141t149.5 57q22 0 50.5 -4.5t46.5 -9.5l18 -4l146 6l-22 -97h-66q7 -21 7 -55q0 -77 -59 -132.5t-151 -55.5l-40 5q-19 -25 -19 -44
q0 -13 19.5 -19.5t74.5 -13.5q66 -10 105 -37.5t39 -87.5q0 -86 -65.5 -140t-177.5 -54zM274 -5q-71 11 -86 15q-26 -14 -47 -35.5t-21 -42.5q0 -28 24 -45.5t73 -17.5q55 0 93.5 19t38.5 62q0 22 -17 30.5t-58 14.5zM291 258q41 0 66.5 28t25.5 65q0 63 -75 63
q-40 0 -65.5 -28t-25.5 -66q0 -62 74 -62zM234 742h107q-7 -52 47 -52t71 52h107q-49 -151 -209 -151q-146 0 -123 151z" />
    <glyph glyph-name="Gdotaccent" unicode="&#x120;" horiz-adv-x="569" 
d="M430 748l30 125h112l-29 -125h-113zM383 271l24 102h196l-84 -358q-73 -27 -193 -27q-221 0 -221 210q0 97 22 184.5t64.5 158t113.5 112.5t161 42q48 0 99.5 -9.5t78.5 -19.5l28 -9l-29 -90q-99 21 -188 21q-57 0 -102 -37.5t-70.5 -97.5t-38.5 -126t-13 -130
q0 -102 109 -102q18 0 37.5 2t30.5 4l10 2l39 168h-74z" />
    <glyph glyph-name="gdotaccent" unicode="&#x121;" horiz-adv-x="480" 
d="M219 -231q-208 0 -208 135q0 48 34.5 80t90.5 60q-19 18 -19 50q0 20 14.5 44t28.5 38l15 15q-68 38 -68 123q0 84 56.5 141t149.5 57q22 0 50.5 -4.5t46.5 -9.5l18 -4l146 6l-22 -97h-66q7 -21 7 -55q0 -77 -59 -132.5t-151 -55.5l-40 5q-19 -25 -19 -44
q0 -13 19.5 -19.5t74.5 -13.5q66 -10 105 -37.5t39 -87.5q0 -86 -65.5 -140t-177.5 -54zM274 -5q-71 11 -86 15q-26 -14 -47 -35.5t-21 -42.5q0 -28 24 -45.5t73 -17.5q55 0 93.5 19t38.5 62q0 22 -17 30.5t-58 14.5zM291 258q41 0 66.5 28t25.5 65q0 63 -75 63
q-40 0 -65.5 -28t-25.5 -66q0 -62 74 -62zM302 588l29 125h103l-29 -125h-103z" />
    <glyph glyph-name="Gcommaaccent" unicode="&#x122;" horiz-adv-x="569" 
d="M383 271l24 102h196l-84 -358q-73 -27 -193 -27q-221 0 -221 210q0 97 22 184.5t64.5 158t113.5 112.5t161 42q48 0 99.5 -9.5t78.5 -19.5l28 -9l-29 -90q-99 21 -188 21q-57 0 -102 -37.5t-70.5 -97.5t-38.5 -126t-13 -130q0 -102 109 -102q18 0 37.5 2t30.5 4l10 2
l39 168h-74zM145 -302l95 230h109l-104 -230h-100z" />
    <glyph glyph-name="gcommaaccent" unicode="&#x123;" horiz-adv-x="480" 
d="M397 809h101l-96 -230h-109zM219 -231q-208 0 -208 135q0 48 34.5 80t90.5 60q-19 18 -19 50q0 20 14.5 44t28.5 38l15 15q-68 38 -68 123q0 84 56.5 141t149.5 57q22 0 50.5 -4.5t46.5 -9.5l18 -4l146 6l-22 -97h-66q7 -21 7 -55q0 -77 -59 -132.5t-151 -55.5l-40 5
q-19 -25 -19 -44q0 -13 19.5 -19.5t74.5 -13.5q66 -10 105 -37.5t39 -87.5q0 -86 -65.5 -140t-177.5 -54zM274 -5q-71 11 -86 15q-26 -14 -47 -35.5t-21 -42.5q0 -28 24 -45.5t73 -17.5q55 0 93.5 19t38.5 62q0 22 -17 30.5t-58 14.5zM291 258q41 0 66.5 28t25.5 65
q0 63 -75 63q-40 0 -65.5 -28t-25.5 -66q0 -62 74 -62z" />
    <glyph glyph-name="Hcircumflex" unicode="&#x124;" horiz-adv-x="621" 
d="M430 0l68 295h-240l-67 -295h-123l158 683h123l-66 -281h240l65 281h122l-157 -683h-123zM315 783l173 148h70l96 -148h-109l-33 61l-70 -61h-127z" />
    <glyph glyph-name="hcircumflex" unicode="&#x125;" horiz-adv-x="509" 
d="M177 0h-119l162 704h119l-59 -261q7 8 19.5 19.5t47.5 30.5t67 19q62 0 91.5 -38t29.5 -100q0 -31 -21 -127l-57 -247h-119l55 238q18 69 18 108q0 32 -9.5 47t-37.5 15q-17 0 -44.5 -18t-46.5 -36l-19 -19zM278 753l173 148h70l96 -148h-109l-33 61l-70 -61h-127z" />
    <glyph glyph-name="Hbar" unicode="&#x126;" horiz-adv-x="631" 
d="M117 486v3l24 104h69l21 90h117l-21 -90h250l21 90h117l-21 -90h68l-27 -107h-66l-111 -486h-118l66 286h-250l-66 -286h-117l112 486h-68zM283 401h250l19 85h-250z" />
    <glyph glyph-name="hbar" unicode="&#x127;" horiz-adv-x="509" 
d="M130 542l24 104h52l14 58h119l-13 -58h129l-25 -104h-128l-22 -99q7 8 19.5 19.5t47.5 30.5t67 19q62 0 91.5 -38t29.5 -100q0 -31 -21 -127l-57 -247h-119l55 238q18 69 18 108q0 32 -9.5 47t-37.5 15q-17 0 -44.5 -18t-46.5 -36l-19 -19l-77 -335h-119l124 542h-52z
" />
    <glyph glyph-name="Itilde" unicode="&#x128;" horiz-adv-x="349" 
d="M194 589l22 94h232l-22 -94h-55l-113 -495h55l-21 -94h-232l21 94h54l114 495h-55zM518 922l2 -84q-64 -62 -110 -62q-26 0 -79 23.5t-69 23.5q-11 0 -32 -10.5t-37 -20.5l-16 -11l-4 84q68 62 114 62q32 0 84 -22.5t61 -22.5q11 0 32.5 10t37.5 20z" />
    <glyph glyph-name="itilde" unicode="&#x129;" horiz-adv-x="234" 
d="M58 0l115 500h119l-115 -500h-119zM416 740l4 -83q-7 -7 -19 -17t-41.5 -27t-50.5 -17q-24 0 -70 22.5t-59 22.5q-12 0 -33 -10.5t-37 -20.5l-15 -10l-2 83q64 62 110 62q29 0 74.5 -22t54.5 -22q10 0 31 9.5t37 19.5z" />
    <glyph glyph-name="Imacron" unicode="&#x12a;" horiz-adv-x="349" 
d="M194 589l22 94h232l-22 -94h-55l-113 -495h55l-21 -94h-232l21 94h54l114 495h-55zM151 821l22 97h318l-22 -97h-318z" />
    <glyph glyph-name="imacron" unicode="&#x12b;" horiz-adv-x="234" 
d="M58 0l115 500h119l-115 -500h-119zM102 630l22 97h301l-23 -97h-300z" />
    <glyph glyph-name="Ibreve" unicode="&#x12c;" horiz-adv-x="349" 
d="M194 589l22 94h232l-22 -94h-55l-113 -495h55l-21 -94h-232l21 94h54l114 495h-55zM216 926h108q-7 -46 41 -46q46 0 63 46h108q-23 -69 -67.5 -104.5t-123.5 -35.5q-71 0 -104.5 36t-24.5 104z" />
    <glyph glyph-name="ibreve" unicode="&#x12d;" horiz-adv-x="234" 
d="M58 0l115 500h119l-115 -500h-119zM115 742h107q-7 -52 47 -52t71 52h107q-49 -151 -209 -151q-146 0 -123 151z" />
    <glyph glyph-name="Iogonek" unicode="&#x12e;" horiz-adv-x="349" 
d="M194 589l22 94h232l-22 -94h-55l-113 -495h55l-21 -94h-77q-26 -13 -54 -42.5t-28 -48.5q0 -15 16 -15l40 3l-12 -98q-54 -11 -93 -11q-37 0 -58 19t-21 55q0 34 28 72t63 66h-36l21 94h54l114 495h-55z" />
    <glyph glyph-name="iogonek" unicode="&#x12f;" horiz-adv-x="234" 
d="M147 -103l-11 -98q-54 -11 -93 -11q-38 0 -59 19t-21 55q0 35 29.5 74t65.5 66l115 498h119l-115 -500q-29 -17 -57 -44.5t-28 -46.5q0 -15 16 -15zM187 565l29 125h120l-28 -125h-121z" />
    <glyph glyph-name="Idotaccent" unicode="&#x130;" horiz-adv-x="259" 
d="M194 589l22 94h232l-22 -94h-55l-113 -495h55l-21 -94h-232l21 94h54l114 495h-55zM256 785l29 126h105l-31 -126h-103z" />
    <glyph glyph-name="dotlessi" unicode="&#x131;" horiz-adv-x="235" 
d="M58 0l115 500h119l-115 -500h-119z" />
    <glyph glyph-name="Jcircumflex" unicode="&#x134;" horiz-adv-x="278" 
d="M371 683l-128 -552q-11 -47 -19.5 -76.5t-22 -54t-28 -36.5t-39.5 -20.5t-53.5 -10.5t-74.5 -2l21 107q47 1 63 16t31 78l127 551h123zM152 783l173 148h70l96 -148h-109l-33 61l-70 -61h-127z" />
    <glyph glyph-name="jcircumflex" unicode="&#x135;" horiz-adv-x="234" 
d="M58 0l115 500h119l-115 -500q-14 -59 -23 -85.5t-33.5 -54t-56.5 -44t-101 -47.5l-37 95q80 42 99.5 62t32.5 74zM82 578l164 169h71l86 -169h-109l-30 70l-66 -70h-116z" />
    <glyph glyph-name="Kcommaaccent" unicode="&#x136;" horiz-adv-x="535" 
d="M124 -302l95 230h109l-104 -230h-100zM394 0l-58 281l-82 -6l-63 -275h-123l158 683h123l-70 -301l71 7l193 294h135l-230 -343l75 -340h-129z" />
    <glyph glyph-name="kcommaaccent" unicode="&#x137;" horiz-adv-x="462" 
d="M78 -302l95 230h109l-104 -230h-100zM177 0h-119l162 704h119l-91 -396l41 6l141 185h131l-183 -238l73 -261h-122l-57 215l-47 -5z" />
    <glyph glyph-name="Lacute" unicode="&#x139;" horiz-adv-x="425" 
d="M303 770l-18 94l264 92l18 -115zM421 0h-353l158 683h123l-133 -576h229z" />
    <glyph glyph-name="lacute" unicode="&#x13a;" horiz-adv-x="237" 
d="M59 0l162 704h119l-162 -704h-119zM238 770l-18 94l264 92l18 -115z" />
    <glyph glyph-name="Lcommaaccent" unicode="&#x13b;" horiz-adv-x="425" 
d="M81 -302l95 230h109l-104 -230h-100zM421 0h-353l158 683h123l-133 -576h229z" />
    <glyph glyph-name="lcommaaccent" unicode="&#x13c;" horiz-adv-x="237" 
d="M-46 -302l95 230h109l-104 -230h-100zM59 0l162 704h119l-162 -704h-119z" />
    <glyph glyph-name="Lcaron" unicode="&#x13d;" horiz-adv-x="461" 
d="M581 683l-59 -246h-109l59 246h109zM421 0h-353l158 683h123l-133 -576h229z" />
    <glyph glyph-name="lcaron" unicode="&#x13e;" horiz-adv-x="330" 
d="M498 683l-59 -246h-109l59 246h109zM59 0l162 704h119l-162 -704h-119z" />
    <glyph glyph-name="Lslash" unicode="&#x141;" horiz-adv-x="426" 
d="M423 0h-353l52 223l-35 -21l-37 83l100 62l78 336h123l-57 -246l108 67l37 -83l-174 -108l-47 -206h229z" />
    <glyph glyph-name="lslash" unicode="&#x142;" horiz-adv-x="287" 
d="M82 0l54 235l-45 -28l-37 83l110 69l80 345h119l-60 -258l47 29l37 -83l-112 -70l-74 -322h-119z" />
    <glyph glyph-name="Nacute" unicode="&#x143;" horiz-adv-x="646" 
d="M392 770l-18 94l264 92l18 -115zM68 0l158 683h198l53 -553h14l126 553h118l-157 -683h-189l-60 562h-14l-131 -562h-116z" />
    <glyph glyph-name="nacute" unicode="&#x144;" horiz-adv-x="509" 
d="M177 0h-119l115 500h114l-9 -59q7 8 20 20t48.5 31.5t67.5 19.5q62 0 91.5 -38t29.5 -100q0 -31 -21 -127l-57 -247h-119l55 238q18 81 18 108q0 32 -10 47t-38 15q-18 0 -45 -18t-46 -36l-18 -19zM291 581l-9 95l255 91l9 -106z" />
    <glyph glyph-name="Ncommaaccent" unicode="&#x145;" horiz-adv-x="646" 
d="M186 -302l95 230h109l-104 -230h-100zM68 0l158 683h198l53 -553h14l126 553h118l-157 -683h-189l-60 562h-14l-131 -562h-116z" />
    <glyph glyph-name="ncommaaccent" unicode="&#x146;" horiz-adv-x="509" 
d="M177 0h-119l115 500h114l-9 -59q7 8 20 20t48.5 31.5t67.5 19.5q62 0 91.5 -38t29.5 -100q0 -31 -21 -127l-57 -247h-119l55 238q18 81 18 108q0 32 -10 47t-38 15q-18 0 -45 -18t-46 -36l-18 -19zM103 -302l95 230h109l-104 -230h-100z" />
    <glyph glyph-name="Ncaron" unicode="&#x147;" horiz-adv-x="646" 
d="M685 926l-160 -148h-80l-94 148h117l36 -64l63 64h118zM68 0l158 683h198l53 -553h14l126 553h118l-157 -683h-189l-60 562h-14l-131 -562h-116z" />
    <glyph glyph-name="ncaron" unicode="&#x148;" horiz-adv-x="509" 
d="M177 0h-119l115 500h114l-9 -59q7 8 20 20t48.5 31.5t67.5 19.5q62 0 91.5 -38t29.5 -100q0 -31 -21 -127l-57 -247h-119l55 238q18 81 18 108q0 32 -10 47t-38 15q-18 0 -45 -18t-46 -36l-18 -19zM423 578h-75l-82 169h109l35 -72l62 72h116z" />
    <glyph glyph-name="Eng" unicode="&#x14a;" horiz-adv-x="646" 
d="M705 548l-127 -548l-1 -4q-16 -71 -29 -106.5t-40 -59t-61.5 -29t-101.5 -5.5l21 107q47 1 63 16t31 78v3h-71l-60 562h-14l-131 -562h-116l158 683h198l53 -553h13l39 166l88 387h118l-31 -135h1z" />
    <glyph glyph-name="eng" unicode="&#x14b;" horiz-adv-x="499" 
d="M168 0h-113l118 499h113l-13 -51q79 63 133 63q103 0 117 -93q9 -57 -15 -157l-61 -256q-24 -99 -68 -149t-154 -99l-28 102q77 39 100.5 64t37.5 82l61 256q15 59 11 95q-3 43 -49 43q-17 0 -44 -12.5t-46 -25.5l-18 -13z" />
    <glyph glyph-name="Omacron" unicode="&#x14c;" horiz-adv-x="618" 
d="M338 95q54 0 92 36q52 49 82.5 148.5t30.5 195.5q0 61 -24 87t-82 26q-53 0 -88 -32q-55 -51 -87 -155t-32 -193q0 -61 24.5 -87t83.5 -26zM318 -12q-214 0 -214 208q0 131 40.5 247.5t116.5 182.5q78 69 189 69q220 0 220 -208q0 -137 -41.5 -256.5t-123.5 -183.5
q-76 -59 -187 -59zM326 810l22 97h318l-22 -97h-318z" />
    <glyph glyph-name="omacron" unicode="&#x14d;" horiz-adv-x="496" 
d="M335 511q192 0 192 -185q0 -84 -28 -159.5t-87.5 -127t-138.5 -51.5q-190 0 -190 183q0 83 29.5 159.5t88.5 128.5t134 52zM273 90q60 0 97.5 72.5t37.5 165.5q0 81 -73 81q-59 0 -96.5 -73.5t-37.5 -165.5q0 -80 72 -80zM229 630l22 97h301l-23 -97h-300z" />
    <glyph glyph-name="Obreve" unicode="&#x14e;" horiz-adv-x="618" 
d="M351 926h108q-7 -46 41 -46q46 0 63 46h108q-23 -69 -67.5 -104.5t-123.5 -35.5q-71 0 -104.5 36t-24.5 104zM338 95q54 0 92 36q52 49 82.5 148.5t30.5 195.5q0 61 -24 87t-82 26q-53 0 -88 -32q-55 -51 -87 -155t-32 -193q0 -61 24.5 -87t83.5 -26zM318 -12
q-214 0 -214 208q0 131 40.5 247.5t116.5 182.5q78 69 189 69q220 0 220 -208q0 -137 -41.5 -256.5t-123.5 -183.5q-76 -59 -187 -59z" />
    <glyph glyph-name="obreve" unicode="&#x14f;" horiz-adv-x="496" 
d="M335 511q192 0 192 -185q0 -84 -28 -159.5t-87.5 -127t-138.5 -51.5q-190 0 -190 183q0 83 29.5 159.5t88.5 128.5t134 52zM273 90q60 0 97.5 72.5t37.5 165.5q0 81 -73 81q-59 0 -96.5 -73.5t-37.5 -165.5q0 -80 72 -80zM234 742h107q-7 -52 47 -52t71 52h107
q-49 -151 -209 -151q-146 0 -123 151z" />
    <glyph glyph-name="Ohungarumlaut" unicode="&#x150;" horiz-adv-x="618" 
d="M612 748l-85 37l124 182l94 -42zM411 749l-86 36l126 183l93 -42zM338 95q54 0 92 36q52 49 82.5 148.5t30.5 195.5q0 61 -24 87t-82 26q-53 0 -88 -32q-55 -51 -87 -155t-32 -193q0 -61 24.5 -87t83.5 -26zM318 -12q-214 0 -214 208q0 131 40.5 247.5t116.5 182.5
q78 69 189 69q220 0 220 -208q0 -137 -41.5 -256.5t-123.5 -183.5q-76 -59 -187 -59z" />
    <glyph glyph-name="ohungarumlaut" unicode="&#x151;" horiz-adv-x="496" 
d="M335 511q192 0 192 -185q0 -84 -28 -159.5t-87.5 -127t-138.5 -51.5q-190 0 -190 183q0 83 29.5 159.5t88.5 128.5t134 52zM273 90q60 0 97.5 72.5t37.5 165.5q0 81 -73 81q-59 0 -96.5 -73.5t-37.5 -165.5q0 -80 72 -80zM463 568l-71 59l160 177l77 -61zM272 568l-70 59
l159 176l77 -60z" />
    <glyph glyph-name="OE" unicode="&#x152;" horiz-adv-x="838" 
d="M801 0h-397q-78 -12 -121 -12q-176 0 -185 166q-4 74 22 191q44 184 125 271t206 87q52 0 114 -12h399l-27 -117h-285l-43 -175h229l-26 -112l-228 2l-41 -172h285zM326 106q22 0 101 7l112 466q-57 6 -101 6q-76 0 -121 -54.5t-76 -185.5q-21 -84 -21 -136
q0 -54 25 -78.5t81 -24.5z" />
    <glyph glyph-name="oe" unicode="&#x153;" horiz-adv-x="769" 
d="M571 97q31 0 74 2.5t71 4.5l28 2l-20 -92q-94 -26 -187 -26q-100 0 -134 58q-66 -58 -163 -58q-142 0 -158 118q-10 64 10 146q15 59 34 102.5t50 80.5t78 56.5t109 19.5q101 0 137 -64q64 64 160 64q143 0 153 -124q6 -53 -10 -105l-26 -84l-278 2q-8 -32 -4 -54
q8 -49 76 -49zM264 95q26 0 47 10.5t34 24t24.5 38.5t16.5 42t13 47q11 48 10 83q-2 33 -18.5 48.5t-52.5 15.5q-54 0 -83.5 -38.5t-46.5 -113.5q-18 -73 -12 -109q9 -48 68 -48zM520 292l173 -2q12 44 9 70q-3 23 -18 32.5t-46 9.5q-49 0 -77 -27t-41 -83z" />
    <glyph glyph-name="Racute" unicode="&#x154;" 
d="M407 0l-51 227h-113l-52 -227h-123l158 683h200q103 0 152.5 -44t49.5 -143q0 -97 -45.5 -162t-112.5 -90l60 -244h-123zM502 491q0 46 -19.5 66.5t-64.5 20.5h-94l-57 -246h104q60 0 95.5 46t35.5 113zM337 770l-18 94l264 92l18 -115z" />
    <glyph glyph-name="racute" unicode="&#x155;" horiz-adv-x="329" 
d="M58 0l115 500h118l-18 -73l26 20.5t59 36t78 28.5l-34 -125q-24 -7 -61 -22t-63 -27l-25 -12l-76 -326h-119zM190 581l-9 95l255 91l9 -106z" />
    <glyph glyph-name="Rcommaaccent" unicode="&#x156;" 
d="M140 -302l95 230h109l-104 -230h-100zM407 0l-51 227h-113l-52 -227h-123l158 683h200q103 0 152.5 -44t49.5 -143q0 -97 -45.5 -162t-112.5 -90l60 -244h-123zM502 491q0 46 -19.5 66.5t-64.5 20.5h-94l-57 -246h104q60 0 95.5 46t35.5 113z" />
    <glyph glyph-name="rcommaaccent" unicode="&#x157;" horiz-adv-x="329" 
d="M58 0l115 500h118l-18 -73l26 20.5t59 36t78 28.5l-34 -125q-24 -7 -61 -22t-63 -27l-25 -12l-76 -326h-119zM-40 -302l95 230h109l-104 -230h-100z" />
    <glyph glyph-name="Rcaron" unicode="&#x158;" 
d="M624 927l-160 -148h-80l-94 148h117l36 -64l63 64h118zM407 0l-51 227h-113l-52 -227h-123l158 683h200q103 0 152.5 -44t49.5 -143q0 -97 -45.5 -162t-112.5 -90l60 -244h-123zM502 491q0 46 -19.5 66.5t-64.5 20.5h-94l-57 -246h104q60 0 95.5 46t35.5 113z" />
    <glyph glyph-name="rcaron" unicode="&#x159;" horiz-adv-x="329" 
d="M58 0l115 500h118l-18 -73l26 20.5t59 36t78 28.5l-34 -125q-24 -7 -61 -22t-63 -27l-25 -12l-76 -326h-119zM331 578h-75l-82 169h109l35 -72l62 72h116z" />
    <glyph glyph-name="Sacute" unicode="&#x15a;" horiz-adv-x="496" 
d="M587 659l-22 -88q-109 18 -179 18q-52 0 -82 -27.5t-30 -75.5q0 -31 18 -46.5t83 -43.5q82 -35 109.5 -69.5t27.5 -102.5q0 -113 -68.5 -174.5t-185.5 -61.5q-46 0 -98 9.5t-80 18.5l-29 10l21 89q114 -20 185 -20q131 0 131 116q0 32 -18.5 48t-85.5 45q-72 31 -103 67
t-31 101q0 98 64 160.5t170 62.5q46 0 97 -9t79 -18zM342 770l-18 94l264 92l18 -115z" />
    <glyph glyph-name="sacute" unicode="&#x15b;" horiz-adv-x="431" 
d="M492 482l-22 -89q-101 16 -166 16q-35 0 -55 -17.5t-20 -43.5q0 -18 15.5 -28t61.5 -23q75 -23 104.5 -45.5t29.5 -75.5q0 -92 -61.5 -140t-161.5 -48q-41 0 -83.5 8t-64.5 16l-22 8l22 88q96 -18 161 -18q88 0 88 62q0 17 -15.5 25.5t-55.5 19.5q-70 19 -103.5 45
t-33.5 75q0 90 59.5 142t145.5 52q44 0 88.5 -7.5t66.5 -14.5zM261 581l-9 95l255 91l9 -106z" />
    <glyph glyph-name="Scircumflex" unicode="&#x15c;" horiz-adv-x="496" 
d="M587 659l-22 -88q-109 18 -179 18q-52 0 -82 -27.5t-30 -75.5q0 -31 18 -46.5t83 -43.5q82 -35 109.5 -69.5t27.5 -102.5q0 -113 -68.5 -174.5t-185.5 -61.5q-46 0 -98 9.5t-80 18.5l-29 10l21 89q114 -20 185 -20q131 0 131 116q0 32 -18.5 48t-85.5 45q-72 31 -103 67
t-31 101q0 98 64 160.5t170 62.5q46 0 97 -9t79 -18zM253 783l173 148h70l96 -148h-109l-33 61l-70 -61h-127z" />
    <glyph glyph-name="scircumflex" unicode="&#x15d;" horiz-adv-x="431" 
d="M492 482l-22 -89q-101 16 -166 16q-35 0 -55 -17.5t-20 -43.5q0 -18 15.5 -28t61.5 -23q75 -23 104.5 -45.5t29.5 -75.5q0 -92 -61.5 -140t-161.5 -48q-41 0 -83.5 8t-64.5 16l-22 8l22 88q96 -18 161 -18q88 0 88 62q0 17 -15.5 25.5t-55.5 19.5q-70 19 -103.5 45
t-33.5 75q0 90 59.5 142t145.5 52q44 0 88.5 -7.5t66.5 -14.5zM187 578l164 169h71l86 -169h-109l-30 70l-66 -70h-116z" />
    <glyph glyph-name="Scedilla" unicode="&#x15e;" horiz-adv-x="496" 
d="M587 659l-22 -88q-109 18 -179 18q-52 0 -82 -27.5t-30 -75.5q0 -31 18 -46.5t83 -43.5q82 -35 109.5 -69.5t27.5 -102.5q0 -111 -66.5 -172.5t-180.5 -63.5l-6 -24h6q107 0 87 -88q-24 -101 -124 -101q-18 0 -39 2.5t-33 4.5l-11 3l18 74q32 -2 50 -2q38 0 44 27
q4 15 -4 19.5t-27 4.5h-27l18 82q-40 3 -81.5 12t-63.5 16l-21 8l21 89q114 -20 185 -20q131 0 131 116q0 32 -18.5 48t-85.5 45q-72 31 -103 67t-31 101q0 98 64 160.5t170 62.5q46 0 97 -9t79 -18z" />
    <glyph glyph-name="scedilla" unicode="&#x15f;" horiz-adv-x="433" 
d="M312 -124q-24 -101 -124 -101q-18 0 -39 2.5t-33 4.5l-11 3l18 74q32 -2 50 -2q38 0 44 27q4 15 -4 19.5t-27 4.5h-27l18 82q-33 3 -65 10.5t-48 13.5l-16 6l22 88q96 -18 161 -18q88 0 88 62q0 17 -15.5 25.5t-55.5 19.5q-70 19 -103.5 45t-33.5 75q0 90 59.5 142
t145.5 52q44 0 88.5 -7.5t66.5 -14.5l22 -7l-22 -89q-101 16 -166 16q-35 0 -55 -17.5t-20 -43.5q0 -18 15.5 -28t61.5 -23q75 -23 104.5 -45.5t29.5 -75.5q0 -91 -59 -138.5t-157 -49.5l-6 -24h6q107 0 87 -88z" />
    <glyph glyph-name="Scaron" unicode="&#x160;" horiz-adv-x="496" 
d="M633 928l-160 -148h-80l-94 148h117l36 -64l63 64h118zM587 659l-22 -88q-109 18 -179 18q-52 0 -82 -27.5t-30 -75.5q0 -31 18 -46.5t83 -43.5q82 -35 109.5 -69.5t27.5 -102.5q0 -113 -68.5 -174.5t-185.5 -61.5q-46 0 -98 9.5t-80 18.5l-29 10l21 89q114 -20 185 -20
q131 0 131 116q0 32 -18.5 48t-85.5 45q-72 31 -103 67t-31 101q0 98 64 160.5t170 62.5q46 0 97 -9t79 -18z" />
    <glyph glyph-name="scaron" unicode="&#x161;" horiz-adv-x="431" 
d="M492 482l-22 -89q-101 16 -166 16q-35 0 -55 -17.5t-20 -43.5q0 -18 15.5 -28t61.5 -23q75 -23 104.5 -45.5t29.5 -75.5q0 -92 -61.5 -140t-161.5 -48q-41 0 -83.5 8t-64.5 16l-22 8l22 88q96 -18 161 -18q88 0 88 62q0 17 -15.5 25.5t-55.5 19.5q-70 19 -103.5 45
t-33.5 75q0 90 59.5 142t145.5 52q44 0 88.5 -7.5t66.5 -14.5zM384 578h-75l-82 169h109l35 -72l62 72h116z" />
    <glyph glyph-name="Tcommaaccent" unicode="&#x162;" horiz-adv-x="459" 
d="M68 -302l95 230h109l-104 -230h-100zM142 576l25 107h440l-25 -107h-159l-133 -576h-123l133 576h-158z" />
    <glyph glyph-name="tcommaaccent" unicode="&#x163;" horiz-adv-x="326" 
d="M397 398h-113l-49 -213q-9 -43 -9 -62q0 -33 34 -33l71 5l-10 -86q-53 -21 -108 -21q-53 0 -82 29.5t-29 75.5q0 37 16 103l47 202h-57l27 102h54l31 133h119l-31 -133h114zM25 -302l95 230h109l-104 -230h-100z" />
    <glyph glyph-name="Tcaron" unicode="&#x164;" horiz-adv-x="459" 
d="M592 927l-160 -148h-80l-94 148h117l36 -64l63 64h118zM142 576l25 107h440l-25 -107h-159l-133 -576h-123l133 576h-158z" />
    <glyph glyph-name="tcaron" unicode="&#x165;" horiz-adv-x="449" 
d="M615 683l-58 -246h-110l60 246h108zM397 398h-113l-49 -213q-9 -43 -9 -62q0 -33 34 -33l71 5l-10 -86q-53 -21 -108 -21q-53 0 -82 29.5t-29 75.5q0 37 16 103l47 202h-57l27 102h54l31 133h119l-31 -133h114z" />
    <glyph glyph-name="Tbar" unicode="&#x166;" horiz-adv-x="464" 
d="M145 576l25 107h440l-25 -107h-159l-49 -210h134l-26 -106h-132l-60 -260h-123l60 260h-129l24 106h129l49 210h-158z" />
    <glyph glyph-name="tbar" unicode="&#x167;" horiz-adv-x="330" 
d="M399 398h-113l-19 -81h102l-22 -103h-104l-6 -29q-9 -43 -9 -62q0 -33 34 -33l71 5l-10 -86q-53 -21 -108 -21q-53 0 -82 29.5t-29 75.5q0 37 16 103l4 18h-51l22 103h53l19 81h-57l27 102h54l31 133h119l-31 -133h114z" />
    <glyph glyph-name="Utilde" unicode="&#x168;" horiz-adv-x="595" 
d="M649 930l2 -84q-64 -62 -110 -62q-26 0 -79 23.5t-69 23.5q-11 0 -32 -10.5t-37 -20.5l-16 -11l-4 84q68 62 114 62q32 0 84 -22.5t61 -22.5q11 0 32.5 10t37.5 20zM342 683l-106 -456q-9 -38 -9 -67q0 -36 24 -50t70 -14q66 0 95 30t45 100l106 457h123l-106 -457
q-29 -125 -93 -181.5t-181 -56.5q-96 0 -150.5 38t-54.5 114q0 48 13 106l101 437h123z" />
    <glyph glyph-name="utilde" unicode="&#x169;" horiz-adv-x="509" 
d="M555 740l4 -83q-7 -7 -19 -17t-41.5 -27t-50.5 -17q-24 0 -70 22.5t-59 22.5q-12 0 -33 -10.5t-36 -20.5l-16 -10l-2 83q64 62 110 62q29 0 74.5 -22t54.5 -22q10 0 31 9.5t37 19.5zM447 500h120l-116 -500h-114l9 59q-7 -8 -20 -20t-48.5 -31.5t-66.5 -19.5
q-62 0 -91.5 38t-29.5 100q0 38 20 127l57 247h119l-55 -238q-18 -81 -18 -108q0 -62 48 -62q18 0 45 18t46 36l18 19z" />
    <glyph glyph-name="Umacron" unicode="&#x16a;" horiz-adv-x="595" 
d="M342 683l-106 -456q-9 -38 -9 -67q0 -36 24 -50t70 -14q66 0 95 30t45 100l106 457h123l-106 -457q-29 -125 -93 -181.5t-181 -56.5q-96 0 -150.5 38t-54.5 114q0 48 13 106l101 437h123zM312 810l22 97h318l-22 -97h-318z" />
    <glyph glyph-name="umacron" unicode="&#x16b;" horiz-adv-x="509" 
d="M447 500h120l-116 -500h-114l9 59q-7 -8 -20 -20t-48.5 -31.5t-66.5 -19.5q-62 0 -91.5 38t-29.5 100q0 38 20 127l57 247h119l-55 -238q-18 -81 -18 -108q0 -62 48 -62q18 0 45 18t46 36l18 19zM234 630l22 97h301l-23 -97h-300z" />
    <glyph glyph-name="Ubreve" unicode="&#x16c;" horiz-adv-x="595" 
d="M330 926h108q-7 -46 41 -46q46 0 63 46h108q-23 -69 -67.5 -104.5t-123.5 -35.5q-71 0 -104.5 36t-24.5 104zM342 683l-106 -456q-9 -38 -9 -67q0 -36 24 -50t70 -14q66 0 95 30t45 100l106 457h123l-106 -457q-29 -125 -93 -181.5t-181 -56.5q-96 0 -150.5 38t-54.5 114
q0 48 13 106l101 437h123z" />
    <glyph glyph-name="ubreve" unicode="&#x16d;" horiz-adv-x="509" 
d="M447 500h120l-116 -500h-114l9 59q-7 -8 -20 -20t-48.5 -31.5t-66.5 -19.5q-62 0 -91.5 38t-29.5 100q0 38 20 127l57 247h119l-55 -238q-18 -81 -18 -108q0 -62 48 -62q18 0 45 18t46 36l18 19zM247 742h107q-7 -52 47 -52t71 52h107q-49 -151 -209 -151
q-146 0 -123 151z" />
    <glyph glyph-name="Uring" unicode="&#x16e;" horiz-adv-x="595" 
d="M613 836q-13 -54 -54 -83.5t-98 -29.5q-55 0 -82.5 29.5t-13.5 83.5q14 56 54.5 84.5t97.5 28.5q55 0 82.5 -28t13.5 -85zM442 836q-4 -16 6.5 -25.5t31.5 -9.5q48 0 56 35q4 18 -8.5 26.5t-30.5 8.5q-47 0 -55 -35zM342 683l-106 -456q-9 -38 -9 -67q0 -36 24 -50
t70 -14q66 0 95 30t45 100l106 457h123l-106 -457q-29 -125 -93 -181.5t-181 -56.5q-96 0 -150.5 38t-54.5 114q0 48 13 106l101 437h123z" />
    <glyph glyph-name="uring" unicode="&#x16f;" horiz-adv-x="509" 
d="M299 638q11 45 44.5 74.5t80.5 29.5q45 0 62.5 -28t8.5 -74q-10 -50 -44.5 -79.5t-81.5 -29.5q-46 0 -64 30t-6 77zM364 638q-4 -14 3.5 -24.5t21.5 -10.5q31 0 42 34q4 14 -4 23.5t-21 9.5q-15 0 -26.5 -9t-15.5 -23zM447 500h120l-116 -500h-114l9 59q-7 -8 -20 -20
t-48.5 -31.5t-66.5 -19.5q-62 0 -91.5 38t-29.5 100q0 38 20 127l57 247h119l-55 -238q-18 -81 -18 -108q0 -62 48 -62q18 0 45 18t46 36l18 19z" />
    <glyph glyph-name="Uhungarumlaut" unicode="&#x170;" horiz-adv-x="595" 
d="M587 744l-85 37l124 182l94 -42zM386 745l-86 36l126 183l93 -42zM342 683l-106 -456q-9 -38 -9 -67q0 -36 24 -50t70 -14q66 0 95 30t45 100l106 457h123l-106 -457q-29 -125 -93 -181.5t-181 -56.5q-96 0 -150.5 38t-54.5 114q0 48 13 106l101 437h123z" />
    <glyph glyph-name="uhungarumlaut" unicode="&#x171;" horiz-adv-x="509" 
d="M486 568l-71 59l160 177l77 -61zM295 568l-70 59l159 176l77 -60zM447 500h120l-116 -500h-114l9 59q-7 -8 -20 -20t-48.5 -31.5t-66.5 -19.5q-62 0 -91.5 38t-29.5 100q0 38 20 127l57 247h119l-55 -238q-18 -81 -18 -108q0 -62 48 -62q18 0 45 18t46 36l18 19z" />
    <glyph glyph-name="Uogonek" unicode="&#x172;" horiz-adv-x="597" 
d="M344 683l-106 -456q-9 -38 -9 -67q0 -36 24 -50t70 -14q66 0 95 30t45 100l106 457h123l-106 -457q-25 -107 -75 -163.5t-136 -69.5q-62 -53 -62 -84q0 -15 16 -15l40 3l-12 -98q-54 -11 -93 -11q-37 0 -58.5 19t-21.5 55q0 57 81 129q-74 9 -116 46t-42 103q0 48 13 106
l101 437h123z" />
    <glyph glyph-name="uogonek" unicode="&#x173;" horiz-adv-x="509" 
d="M447 500h120l-116 -500q-24 -14 -51.5 -43.5t-27.5 -47.5q0 -15 16 -15l40 3l-12 -98q-54 -11 -93 -11q-37 0 -58.5 19t-21.5 55q0 35 29 72.5t65 66.5l9 58q-7 -8 -20 -20t-48.5 -31.5t-66.5 -19.5q-62 0 -91.5 38t-29.5 100q0 38 20 127l57 247h119l-55 -238
q-18 -81 -18 -108q0 -62 48 -62q18 0 45 18t46 36l18 19z" />
    <glyph glyph-name="Wcircumflex" unicode="&#x174;" horiz-adv-x="856" 
d="M430 782l173 148h70l96 -148h-109l-33 61l-70 -61h-127zM177 683h123l-40 -570h18l236 560h135l-29 -560h17l233 570h123l-293 -683h-183l30 513l-211 -513h-189z" />
    <glyph glyph-name="wcircumflex" unicode="&#x175;" horiz-adv-x="754" 
d="M137 500h120l-26 -398h22l170 388h136l-14 -388h22l161 398h120l-209 -500h-201l14 331l-141 -331h-197zM341 578l164 169h71l86 -169h-109l-30 70l-66 -70h-116z" />
    <glyph glyph-name="Ycircumflex" unicode="&#x176;" horiz-adv-x="501" 
d="M257 782l173 148h70l96 -148h-109l-33 61l-70 -61h-127zM656 683l-283 -393l-69 -290h-114l69 296l-98 387h124l57 -279l184 279h130z" />
    <glyph glyph-name="ycircumflex" unicode="&#x177;" horiz-adv-x="462" 
d="M129 500h117l-9 -401h19l185 401h121l-341 -713h-118l106 213h-80v500zM192 578l164 169h71l86 -169h-109l-30 70l-66 -70h-116z" />
    <glyph glyph-name="Ydieresis" unicode="&#x178;" horiz-adv-x="501" 
d="M279 794l29 125h98l-29 -125h-98zM475 794l29 125h99l-31 -125h-97zM656 683l-283 -393l-69 -290h-114l69 296l-98 387h124l57 -279l184 279h130z" />
    <glyph glyph-name="Zacute" unicode="&#x179;" horiz-adv-x="491" 
d="M320 770l-18 94l264 92l18 -115zM170 576l25 107h417l-30 -130l-377 -422l-6 -24h280l-25 -107h-418l29 128l375 423l6 25h-276z" />
    <glyph glyph-name="zacute" unicode="&#x17a;" horiz-adv-x="415" 
d="M126 398l26 102h344l-25 -99l-274 -299h208l-26 -102h-344l22 100l273 298h-204zM243 581l-9 95l255 91l9 -106z" />
    <glyph glyph-name="Zdotaccent" unicode="&#x17b;" horiz-adv-x="491" 
d="M373 785l29 126h105l-31 -126h-103zM170 576l25 107h417l-30 -130l-377 -422l-6 -24h280l-25 -107h-418l29 128l375 423l6 25h-276z" />
    <glyph glyph-name="zdotaccent" unicode="&#x17c;" horiz-adv-x="415" 
d="M126 398l26 102h344l-25 -99l-274 -299h208l-26 -102h-344l22 100l273 298h-204zM284 588l29 125h103l-29 -125h-103z" />
    <glyph glyph-name="Zcaron" unicode="&#x17d;" horiz-adv-x="491" 
d="M624 927l-160 -148h-80l-94 148h117l36 -64l63 64h118zM170 576l25 107h417l-30 -130l-377 -422l-6 -24h280l-25 -107h-418l29 128l375 423l6 25h-276z" />
    <glyph glyph-name="zcaron" unicode="&#x17e;" horiz-adv-x="415" 
d="M372 578h-75l-82 169h109l35 -72l62 72h116zM126 398l26 102h344l-25 -99l-274 -299h208l-26 -102h-344l22 100l273 298h-204z" />
    <glyph glyph-name="florin" unicode="&#x192;" 
d="M402 371l-104 -435q-24 -102 -68 -140.5t-123 -38.5q-14 0 -36 3t-37 6l-15 3l22 95q47 -3 74 -3q49 0 68 76l103 434h-92l25 111h93l7 28q31 110 70 151.5t113 41.5q59 0 120 -13l-25 -100q-61 2 -91 2q-56 0 -74 -91l-4 -19h139l-26 -111h-139z" />
    <glyph glyph-name="Aringacute" unicode="&#x1fa;" horiz-adv-x="552" 
d="M16 0l307 665q-7 23 2 58q14 56 54.5 84.5t97.5 28.5q55 0 82.5 -28t13.5 -85q-9 -33 -27 -57l-11 -666h-123l2 133h-213l-62 -133h-123zM403 576l-155 -337h170l9 337h-24zM363 861l-9 95l255 91l9 -106zM402 723q-4 -16 6.5 -25.5t31.5 -9.5q48 0 56 35q4 18 -8.5 26.5
t-30.5 8.5q-47 0 -55 -35z" />
    <glyph glyph-name="aringacute" unicode="&#x1fb;" horiz-adv-x="521" 
d="M541 337l-19 -80l-24 -106q-12 -52 31 -79l-21 -84q-43 4 -70 18t-48 45q-9 -7 -25 -17.5t-59 -28t-78 -17.5q-60 0 -94.5 38t-34.5 102q0 166 217 178l101 6l6 25q9 35 -9.5 54t-53.5 19q-30 0 -76.5 -4t-77.5 -8l-32 -4l-4 84q106 34 218 34q82 0 126.5 -48t26.5 -127z
M322 638q11 45 44.5 74.5t80.5 29.5q45 0 62.5 -28t8.5 -74q-10 -50 -44.5 -79.5t-81.5 -29.5q-46 0 -64 30t-6 77zM360 761l-10 103l255 92l10 -116zM399 229l-76 -5q-51 -4 -77 -22t-26 -60q0 -52 42 -52q24 0 52.5 12.5t45.5 25.5l16 12zM387 638q-4 -14 3.5 -24.5
t21.5 -10.5q31 0 42 34q4 14 -4 23.5t-21 9.5q-15 0 -26.5 -9t-15.5 -23z" />
    <glyph glyph-name="AEacute" unicode="&#x1fc;" horiz-adv-x="760" 
d="M322 0l31 133h-158l-62 -133h-116l317 691h552l-27 -116l-286 2l-43 -179h230l-25 -111h-231l-41 -172h286l-26 -115h-401zM397 576l-150 -329h133l78 329h-61zM507 770l-18 94l264 92l18 -115z" />
    <glyph glyph-name="aeacute" unicode="&#x1fd;" horiz-adv-x="723" 
d="M523 97q31 0 74 2.5t71 4.5l28 2l-21 -92q-93 -26 -185 -26q-101 0 -136 51q-32 -16 -91.5 -33.5t-95.5 -17.5q-62 0 -92.5 50t-15.5 113q29 126 159 148q72 12 142 11q6 19 8 37t-6.5 35t-31.5 17q-31 0 -76.5 -3.5t-75.5 -7.5l-30 -3l19 105q124 21 194 21
q86 0 113 -49q58 49 141 49q72 0 110 -35t41 -99q3 -43 -13 -101l-21 -78l-278 2q-7 -31 -4 -50q7 -53 73 -53zM209 92q51 0 119 19q-6 39 11 109q-37 -1 -93 -7q-59 -5 -72 -59q-5 -23 3 -42.5t32 -19.5zM475 292l171 -2q10 39 7 69q-6 49 -65 49q-46 0 -72.5 -29
t-40.5 -87zM398 581l-9 95l255 91l9 -106z" />
    <glyph glyph-name="Oslashacute" unicode="&#x1fe;" horiz-adv-x="620" 
d="M118 -119l-60 36l90 134q-43 51 -43 145q0 131 40.5 247.5t116.5 182.5q78 69 189 69q71 0 119 -22l89 130l68 -29l-99 -145q43 -52 43 -142q0 -137 -41.5 -256.5t-123.5 -183.5q-76 -59 -187 -59q-66 0 -114 21zM233 176l125 185l145 214q-23 13 -65 13q-53 0 -88 -32
q-55 -51 -87 -155t-32 -193q0 -23 2 -32zM339 95q55 0 92 36q52 49 82.5 148.5t30.5 195.5q0 10 -2 28l-120 -177l-149 -219q24 -12 66 -12zM396 761l-11 103l255 92l11 -116z" />
    <glyph glyph-name="oslashacute" unicode="&#x1ff;" horiz-adv-x="496" 
d="M335 511q50 0 86 -13l66 108l64 -28l-72 -113q48 -46 48 -139q0 -84 -28 -159.5t-87.5 -127t-138.5 -51.5q-49 0 -86 12l-66 -108l-63 28l72 113q-47 44 -47 138q0 83 29.5 159.5t88.5 128.5t134 52zM282 581l-9 95l255 91l9 -106zM203 146l76 118l85 140q-13 5 -29 5
q-59 0 -96.5 -73.5t-37.5 -165.5q0 -17 2 -24zM273 90q60 0 97.5 72.5t37.5 165.5q0 9 -2 23l-73 -115l-88 -142q11 -4 28 -4z" />
    <glyph glyph-name="Scommaaccent" unicode="&#x218;" horiz-adv-x="496" 
d="M93 -302l95 230h109l-104 -230h-100zM587 659l-22 -88q-109 18 -179 18q-52 0 -82 -27.5t-30 -75.5q0 -31 18 -46.5t83 -43.5q82 -35 109.5 -69.5t27.5 -102.5q0 -113 -68.5 -174.5t-185.5 -61.5q-46 0 -98 9.5t-80 18.5l-29 10l21 89q114 -20 185 -20q131 0 131 116
q0 32 -18.5 48t-85.5 45q-72 31 -103 67t-31 101q0 98 64 160.5t170 62.5q46 0 97 -9t79 -18z" />
    <glyph glyph-name="scommaaccent" unicode="&#x219;" horiz-adv-x="431" 
d="M492 482l-22 -89q-101 16 -166 16q-35 0 -55 -17.5t-20 -43.5q0 -18 15.5 -28t61.5 -23q75 -23 104.5 -45.5t29.5 -75.5q0 -92 -61.5 -140t-161.5 -48q-41 0 -83.5 8t-64.5 16l-22 8l22 88q96 -18 161 -18q88 0 88 62q0 17 -15.5 25.5t-55.5 19.5q-70 19 -103.5 45
t-33.5 75q0 90 59.5 142t145.5 52q44 0 88.5 -7.5t66.5 -14.5zM65 -302l95 230h109l-104 -230h-100z" />
    <glyph glyph-name="uni021A" unicode="&#x21a;" horiz-adv-x="459" 
d="M68 -302l95 230h109l-104 -230h-100zM142 576l25 107h440l-25 -107h-159l-133 -576h-123l133 576h-158z" />
    <glyph glyph-name="uni021B" unicode="&#x21b;" horiz-adv-x="326" 
d="M397 398h-113l-49 -213q-9 -43 -9 -62q0 -33 34 -33l71 5l-10 -86q-53 -21 -108 -21q-53 0 -82 29.5t-29 75.5q0 37 16 103l47 202h-57l27 102h54l31 133h119l-31 -133h114zM25 -302l95 230h109l-104 -230h-100z" />
    <glyph glyph-name="dotlessj" unicode="&#x237;" horiz-adv-x="235" 
d="M58 0l115 500h119l-115 -500q-14 -59 -23 -85.5t-33.5 -54t-56.5 -44t-101 -47.5l-37 95q80 42 99.5 62t32.5 74z" />
    <glyph glyph-name="circumflex" unicode="&#x2c6;" horiz-adv-x="791" 
d="M361 578l164 169h71l86 -169h-109l-30 70l-66 -70h-116z" />
    <glyph glyph-name="caron" unicode="&#x2c7;" horiz-adv-x="791" 
d="M558 578h-75l-82 169h109l35 -72l62 72h116z" />
    <glyph glyph-name="breve" unicode="&#x2d8;" horiz-adv-x="456" 
d="M217 742h107q-7 -52 47 -52t71 52h107q-49 -151 -209 -151q-146 0 -123 151z" />
    <glyph glyph-name="dotaccent" unicode="&#x2d9;" horiz-adv-x="247" 
d="M210 588l29 125h103l-29 -125h-103z" />
    <glyph glyph-name="ring" unicode="&#x2da;" horiz-adv-x="791" 
d="M305 638q11 45 44.5 74.5t80.5 29.5q45 0 62.5 -28t8.5 -74q-10 -50 -44.5 -79.5t-81.5 -29.5q-46 0 -64 30t-6 77zM370 638q-4 -14 3.5 -24.5t21.5 -10.5q31 0 42 34q4 14 -4 23.5t-21 9.5q-15 0 -26.5 -9t-15.5 -23z" />
    <glyph glyph-name="ogonek" unicode="&#x2db;" horiz-adv-x="444" 
d="M352 -103l-12 -98q-54 -11 -93 -11q-37 0 -58.5 19t-21.5 55q0 40 37 83.5t74 68.5l97 -9q-23 -14 -51 -46t-28 -50q0 -15 16 -15z" />
    <glyph glyph-name="tilde" unicode="&#x2dc;" horiz-adv-x="441" 
d="M526 740l4 -83q-7 -7 -19 -17t-41.5 -27t-50.5 -17q-24 0 -70 22.5t-59 22.5q-12 0 -33 -10.5t-37 -20.5l-15 -10l-2 83q64 62 110 62q29 0 74.5 -22t54.5 -22q10 0 31 9.5t37 19.5z" />
    <glyph glyph-name="hungarumlaut" unicode="&#x2dd;" horiz-adv-x="683" 
d="M535 568l-71 59l160 177l77 -61zM344 568l-70 59l159 176l77 -60z" />
    <glyph glyph-name="pi" unicode="&#x3c0;" 
d="M394 154v244h-103l-27 -398h-120l32 398q-17 0 -40.5 -3t-37.5 -7l-15 -3v98q63 17 148 17h247q27 0 55.5 3t43.5 7l15 3v-99q-25 -11 -79 -14v-246q0 -34 14.5 -47.5t58.5 -13.5v-102q-86 0 -126 14t-53 46t-13 103z" />
    <glyph glyph-name="Wgrave" unicode="&#x1e80;" horiz-adv-x="856" 
d="M515 945l202 -100l-43 -84l-218 79zM177 683h123l-40 -570h18l236 560h135l-29 -560h17l233 570h123l-293 -683h-183l30 513l-211 -513h-189z" />
    <glyph glyph-name="wgrave" unicode="&#x1e81;" horiz-adv-x="754" 
d="M399 764l212 -90l-50 -88l-219 81zM137 500h120l-26 -398h22l170 388h136l-14 -388h22l161 398h120l-209 -500h-201l14 331l-141 -331h-197z" />
    <glyph glyph-name="Wacute" unicode="&#x1e82;" horiz-adv-x="856" 
d="M502 770l-18 94l264 92l18 -115zM177 683h123l-40 -570h18l236 560h135l-29 -560h17l233 570h123l-293 -683h-183l30 513l-211 -513h-189z" />
    <glyph glyph-name="wacute" unicode="&#x1e83;" horiz-adv-x="754" 
d="M137 500h120l-26 -398h22l170 388h136l-14 -388h22l161 398h120l-209 -500h-201l14 331l-141 -331h-197zM401 581l-9 95l255 91l9 -106z" />
    <glyph glyph-name="Wdieresis" unicode="&#x1e84;" horiz-adv-x="856" 
d="M453 794l29 125h98l-29 -125h-98zM649 794l29 125h99l-31 -125h-97zM177 683h123l-40 -570h18l236 560h135l-29 -560h17l233 570h123l-293 -683h-183l30 513l-211 -513h-189z" />
    <glyph glyph-name="wdieresis" unicode="&#x1e85;" horiz-adv-x="754" 
d="M137 500h120l-26 -398h22l170 388h136l-14 -388h22l161 398h120l-209 -500h-201l14 331l-141 -331h-197zM360 606l28 124h99l-29 -124h-98zM551 606l28 124h99l-30 -124h-97z" />
    <glyph glyph-name="uni1EAB" unicode="&#x1eab;" horiz-adv-x="521" 
d="M541 337l-19 -80l-24 -106q-12 -52 31 -79l-21 -84q-43 4 -70 18t-48 45q-9 -7 -25 -17.5t-59 -28t-78 -17.5q-60 0 -94.5 38t-34.5 102q0 166 217 178l101 6l6 25q9 35 -9.5 54t-53.5 19q-30 0 -76.5 -4t-77.5 -8l-32 -4l-4 84q106 34 218 34q82 0 126.5 -48t26.5 -127z
M620 891l4 -83q-7 -7 -19 -17t-41.5 -27t-50.5 -17q-24 0 -70 22.5t-59 22.5q-12 0 -33 -10t-37 -20l-15 -11l-2 83q64 62 110 62q29 0 74.5 -22t54.5 -22q10 0 31 10t37 20zM240 548l164 169h71l86 -169h-109l-30 70l-66 -70h-116zM399 229l-76 -5q-51 -4 -77 -22t-26 -60
q0 -52 42 -52q24 0 52.5 12.5t45.5 25.5l16 12z" />
    <glyph glyph-name="uni1EB0" unicode="&#x1eb0;" horiz-adv-x="552" 
d="M442 1120l212 -90l-50 -88l-219 81zM16 0l316 683h215l-12 -683h-123l2 133h-213l-62 -133h-123zM403 576l-155 -337h170l9 337h-24zM323 886h108q-7 -46 41 -46q46 0 63 46h108q-23 -69 -67.5 -104.5t-123.5 -35.5q-71 0 -104.5 36t-24.5 104z" />
    <glyph glyph-name="uni1EC5" unicode="&#x1ec5;" horiz-adv-x="472" 
d="M596 891l4 -83q-7 -7 -19 -17t-41.5 -27t-50.5 -17q-24 0 -70 22.5t-59 22.5q-12 0 -33 -10t-37 -20l-15 -11l-2 83q64 62 110 62q29 0 74.5 -22t54.5 -22q10 0 31 10t37 20zM282 90q31 0 72 4t67 8l26 4l-13 -89q-91 -29 -186 -29q-165 0 -165 166q0 94 27 172.5
t90.5 131.5t155.5 53q169 0 169 -142q0 -94 -65 -130t-213 -36h-39q-5 -20 -5 -45q0 -33 22 -50.5t57 -17.5zM221 292h45q77 0 109 17t32 58q0 50 -57 50q-97 0 -129 -125zM212 548l164 169h71l86 -169h-109l-30 70l-66 -70h-116z" />
    <glyph glyph-name="uni1ED7" unicode="&#x1ed7;" horiz-adv-x="496" 
d="M335 511q192 0 192 -185q0 -84 -28 -159.5t-87.5 -127t-138.5 -51.5q-190 0 -190 183q0 83 29.5 159.5t88.5 128.5t134 52zM273 90q60 0 97.5 72.5t37.5 165.5q0 81 -73 81q-59 0 -96.5 -73.5t-37.5 -165.5q0 -80 72 -80zM593 891l4 -83q-7 -7 -19 -17t-41.5 -27
t-50.5 -17q-24 0 -70 22.5t-59 22.5q-12 0 -33 -10t-36 -20l-16 -11l-2 83q64 62 110 62q29 0 74.5 -22t54.5 -22q10 0 31 10t37 20zM210 548l164 169h71l86 -169h-109l-30 70l-66 -70h-116z" />
    <glyph glyph-name="Ygrave" unicode="&#x1ef2;" horiz-adv-x="501" 
d="M340 945l202 -100l-43 -84l-218 79zM656 683l-283 -393l-69 -290h-114l69 296l-98 387h124l57 -279l184 279h130z" />
    <glyph glyph-name="ygrave" unicode="&#x1ef3;" horiz-adv-x="462" 
d="M255 764l212 -90l-50 -88l-219 81zM129 500h117l-9 -401h19l185 401h121l-341 -713h-118l106 213h-80v500z" />
    <glyph glyph-name="uni1EF8" unicode="&#x1ef8;" horiz-adv-x="501" 
d="M607 932l4 -83q-7 -7 -19 -17t-41.5 -27t-50.5 -17q-24 0 -70 22.5t-59 22.5q-12 0 -33 -10.5t-36 -20.5l-16 -10l-2 83q64 62 110 62q29 0 74.5 -22t54.5 -22q10 0 31 9.5t37 19.5zM656 683l-283 -393l-69 -290h-114l69 296l-98 387h124l57 -279l184 279h130z" />
    <glyph glyph-name="uni1EF9" unicode="&#x1ef9;" horiz-adv-x="462" 
d="M543 740l4 -83q-7 -7 -19 -17t-41.5 -27t-50.5 -17q-24 0 -70 22.5t-59 22.5q-12 0 -33 -10.5t-36 -20.5l-16 -10l-2 83q64 62 110 62q29 0 74.5 -22t54.5 -22q10 0 31 9.5t37 19.5zM129 500h117l-9 -401h19l185 401h121l-341 -713h-118l106 213h-80v500z" />
    <glyph glyph-name="endash" unicode="&#x2013;" horiz-adv-x="543" 
d="M84 317h500v-102h-500v102z" />
    <glyph glyph-name="emdash" unicode="&#x2014;" horiz-adv-x="1043" 
d="M84 317h1000v-102h-1000v102z" />
    <glyph glyph-name="quoteleft" unicode="&#x2018;" horiz-adv-x="176" 
d="M237 682h89l-101 -247h-118z" />
    <glyph glyph-name="quoteright" unicode="&#x2019;" horiz-adv-x="176" 
d="M197 436h-89l101 247h118z" />
    <glyph glyph-name="quotesinglbase" unicode="&#x201a;" horiz-adv-x="156" 
d="M36 -157h-89l101 247h118z" />
    <glyph glyph-name="quotedblleft" unicode="&#x201c;" horiz-adv-x="357" 
d="M236 683h89l-101 -247h-118zM418 683h89l-101 -247h-118z" />
    <glyph glyph-name="quotedblright" unicode="&#x201d;" horiz-adv-x="358" 
d="M197 436h-89l101 247h118zM379 436h-89l101 247h118z" />
    <glyph glyph-name="quotedblbase" unicode="&#x201e;" horiz-adv-x="341" 
d="M261 86h89l-101 -247h-118zM55 86h89l-101 -247h-118z" />
    <glyph glyph-name="dagger" unicode="&#x2020;" horiz-adv-x="452" 
d="M115 377l27 120h143l41 175h112l-41 -175h141l-26 -120h-143l-107 -448h-110l105 448h-142z" />
    <glyph glyph-name="daggerdbl" unicode="&#x2021;" horiz-adv-x="475" 
d="M164 -71l41 174h-143l28 120h143l36 154h-141l27 120l143 -1l41 176h111l-41 -175h141l-26 -120h-143l-37 -154h144l-29 -120l-143 1l-41 -175h-111z" />
    <glyph glyph-name="bullet" unicode="&#x2022;" horiz-adv-x="465" 
d="M164 101v282h250v-282h-250z" />
    <glyph glyph-name="ellipsis" unicode="&#x2026;" horiz-adv-x="621" 
d="M18 0l32 142h121l-32 -142h-121zM250 0l32 142h121l-32 -142h-121zM482 0l32 142h121l-32 -142h-121z" />
    <glyph glyph-name="perthousand" unicode="&#x2030;" horiz-adv-x="829" 
d="M292 628q-17 0 -27 -16t-20 -54q-6 -26 -7.5 -41t3.5 -23t16 -8q16 0 26.5 16.5t19.5 55.5q19 70 -11 70zM147 0l370 717l72 -21l-369 -716zM157 558q36 143 153 143q56 0 78 -36t4 -107q-36 -145 -154 -145q-56 0 -77.5 36.5t-3.5 108.5zM344 145q35 143 153 143
q117 0 82 -143q-36 -145 -153 -145q-57 0 -78.5 36.5t-3.5 108.5zM433 145q-10 -37 -8.5 -54.5t18.5 -17.5t27.5 16.5t19.5 55.5q6 26 7.5 40.5t-3 22t-15.5 7.5q-17 0 -27 -16t-19 -54zM601 145q35 143 153 143q117 0 82 -143q-36 -145 -153 -145q-57 0 -78.5 36.5
t-3.5 108.5zM690 145q-7 -26 -8.5 -41t3 -23t15.5 -8q17 0 27.5 16.5t20.5 55.5q6 26 7 40.5t-3.5 22t-15.5 7.5q-17 0 -27 -16t-19 -54z" />
    <glyph glyph-name="guilsinglleft" unicode="&#x2039;" horiz-adv-x="238" 
d="M321 429l-33 -117l-118 -71l83 -82l-30 -107l-163 164l20 55z" />
    <glyph glyph-name="guilsinglright" unicode="&#x203a;" horiz-adv-x="240" 
d="M30 52l33 117l118 71l-83 82l30 107l163 -164l-20 -55z" />
    <glyph glyph-name="fraction" unicode="&#x2044;" horiz-adv-x="60" 
d="M-45 -30l-112 39l430 696l112 -39z" />
    <glyph glyph-name="zerosuperior" unicode="&#x2070;" horiz-adv-x="280" 
d="M328 801q63 0 85 -38.5t-1 -130.5q-27 -108 -74 -142q-33 -23 -93 -23q-65 0 -86.5 37t0.5 129q27 107 77 144q32 24 92 24zM307 715q-15 0 -25.5 -16.5t-23.5 -66.5q-8 -34 -9 -51.5t3 -22.5t15 -5q15 0 24.5 15t21.5 65q9 34 11 52t-2 24t-15 6z" />
    <glyph glyph-name="foursuperior" unicode="&#x2074;" horiz-adv-x="280" 
d="M262 478l9 38h-137l20 80l98 194h106l-104 -188h39l34 90h83l-23 -90h15l-21 -86h-15l-9 -38h-95z" />
    <glyph glyph-name="fivesuperior" unicode="&#x2075;" horiz-adv-x="280" 
d="M229 790h202l-19 -82h-127l-12 -36q28 8 48 8q94 0 70 -99q-15 -59 -50 -84.5t-94 -25.5q-23 0 -51 3.5t-44 6.5l-17 3l28 78q52 -10 90 -10q31 0 37 24q5 23 -15 23l-34 -7l-69 10z" />
    <glyph glyph-name="sixsuperior" unicode="&#x2076;" horiz-adv-x="280" 
d="M438 789l-24 -79q-61 7 -91 7q-39 0 -48 -38q24 7 44 7q104 0 78 -104q-29 -115 -145 -115q-128 0 -89 157q23 90 64 133.5t114 43.5q16 0 40 -3t41 -6zM283 608q-7 0 -14.5 -2.5t-10.5 -5.5l-4 -2q-12 -47 14 -47t32 29q7 28 -17 28z" />
    <glyph glyph-name="sevensuperior" unicode="&#x2077;" horiz-adv-x="280" 
d="M187 696l23 94h222l-23 -95l-154 -227l-109 20l145 193l3 15h-107z" />
    <glyph glyph-name="eightsuperior" unicode="&#x2078;" horiz-adv-x="280" 
d="M329 801q61 0 85.5 -23t13.5 -66q-7 -29 -23 -48.5t-26 -23.5q5 -2 10.5 -8.5t10 -22t-2.5 -38.5q-14 -57 -51.5 -80.5t-99.5 -23.5q-63 0 -89 23.5t-12 79.5q7 29 24.5 47.5t28.5 23.5q-4 2 -8 9t-7.5 23.5t3.5 39.5q22 88 143 88zM265 545q27 0 35 27q4 18 -12 31h-17
q-22 -12 -26 -31q-8 -27 20 -27zM309 723q-25 0 -31 -23q-4 -17 10 -30h17q19 11 24 30q6 23 -20 23z" />
    <glyph glyph-name="ninesuperior" unicode="&#x2079;" horiz-adv-x="280" 
d="M135 481l26 78q46 -6 84 -6q40 0 49 35l-6 -1q-6 -1 -17 -3t-20 -2q-102 0 -76 104q14 55 52.5 85t93.5 30q129 0 86 -166q-22 -90 -60.5 -129t-110.5 -39q-20 0 -45.5 3.5t-40.5 7.5zM288 657l29 8q13 52 -14 52q-23 0 -31 -31q-6 -29 16 -29z" />
    <glyph glyph-name="zeroinferior" unicode="&#x2080;" horiz-adv-x="280" 
d="M218 323q63 0 85 -38.5t-1 -130.5q-27 -108 -74 -142q-33 -23 -93 -23q-65 0 -86.5 37t0.5 129q27 107 77 144q32 24 92 24zM197 237q-15 0 -25.5 -16.5t-23.5 -66.5q-8 -34 -9 -51.5t3 -22.5t15 -5q15 0 24.5 15t21.5 65q9 34 11 52t-2 24t-15 6z" />
    <glyph glyph-name="oneinferior" unicode="&#x2081;" horiz-adv-x="280" 
d="M69 138l123 74h87l-77 -312h-96l51 207l-61 -36z" />
    <glyph glyph-name="twoinferior" unicode="&#x2082;" horiz-adv-x="280" 
d="M225 -100h-226l20 82l93 65q56 38 63 64q3 11 -6 15.5t-29 4.5l-80 -7l19 89q72 10 116 10q59 0 78.5 -23t5.5 -75q-14 -59 -83 -103l-53 -36h102z" />
    <glyph glyph-name="threeinferior" unicode="&#x2083;" horiz-adv-x="280" 
d="M76 213q68 10 109 10q59 0 82.5 -21.5t12.5 -66.5q-12 -53 -49 -71q35 -16 19 -74q-24 -101 -140 -101q-22 0 -51 2.5t-47 4.5l-18 2l26 84q59 -7 94 -7q34 0 40 22q3 13 -3.5 17t-22.5 4h-66l19 78h64q25 0 30 21q3 11 -3.5 15.5t-22.5 4.5l-88 -6z" />
    <glyph glyph-name="fourinferior" unicode="&#x2084;" horiz-adv-x="280" 
d="M130 -100l9 38h-137l20 80l98 194h106l-104 -188h39l34 90h83l-23 -90h15l-21 -86h-15l-9 -38h-95z" />
    <glyph glyph-name="fiveinferior" unicode="&#x2085;" horiz-adv-x="280" 
d="M91 212h202l-19 -82h-127l-12 -36q28 8 48 8q94 0 70 -99q-15 -59 -50 -84.5t-94 -25.5q-23 0 -51 3.5t-44 6.5l-17 3l28 78q52 -10 90 -10q31 0 37 24q5 23 -15 23l-34 -7l-69 10z" />
    <glyph glyph-name="sixinferior" unicode="&#x2086;" horiz-adv-x="280" 
d="M304 211l-24 -79q-61 7 -91 7q-39 0 -48 -38q25 7 44 7q104 0 78 -104q-29 -115 -145 -115q-128 0 -89 157q23 90 64 133.5t114 43.5q16 0 40.5 -3t40.5 -6zM149 30q-7 0 -14.5 -2.5t-10.5 -5.5l-4 -2q-12 -47 14 -47t32 29q7 28 -17 28z" />
    <glyph glyph-name="seveninferior" unicode="&#x2087;" horiz-adv-x="280" 
d="M55 118l23 94h222l-23 -95l-154 -227l-109 20l145 193l3 15h-107z" />
    <glyph glyph-name="eightinferior" unicode="&#x2088;" horiz-adv-x="280" 
d="M194 223q61 0 85.5 -23t13.5 -66q-7 -29 -23 -48.5t-26 -23.5q5 -2 10.5 -8.5t10 -22t-2.5 -38.5q-14 -57 -51.5 -80.5t-99.5 -23.5q-63 0 -89 23.5t-12 79.5q7 29 24.5 47.5t28.5 23.5q-4 2 -8 9t-7.5 23.5t3.5 39.5q22 88 143 88zM130 -33q27 0 35 27q4 18 -12 31h-17
q-22 -12 -26 -31q-8 -27 20 -27zM174 145q-25 0 -31 -23q-4 -17 10 -30h17q19 11 24 30q6 23 -20 23z" />
    <glyph glyph-name="nineinferior" unicode="&#x2089;" horiz-adv-x="280" 
d="M2 -97l26 78q46 -6 84 -6q40 0 49 35l-6 -1q-6 -1 -17 -3t-20 -2q-102 0 -76 104q14 55 52.5 85t93.5 30q129 0 86 -166q-22 -90 -60.5 -129t-110.5 -39q-20 0 -45.5 3.5t-40.5 7.5zM155 79l29 8q13 52 -14 52q-23 0 -31 -31q-6 -29 16 -29z" />
    <glyph glyph-name="Euro" unicode="&#x20ac;" 
d="M517 105l-9 -91q-89 -26 -163 -26q-195 0 -195 192v10h-57l22 94h42q6 39 15 78h-40l22 94h50q92 216 284 216q35 0 76 -7t65 -14l24 -7l-29 -88q-62 12 -141 12q-92 0 -152 -112h222l-22 -94h-236q-9 -32 -16 -78h235l-21 -94h-221v-2q0 -95 88 -95q34 0 73.5 3t61.5 6z
" />
    <glyph glyph-name="trademark" unicode="&#x2122;" horiz-adv-x="692" 
d="M215 569v72h200v-72h-47v-237h-80v237h-73zM442 331v310h95l47 -171l51 171h95v-310h-75v187l-42 -168h-52l-45 168v-187h-74z" />
    <glyph glyph-name="Omega" unicode="&#x2126;" 
d="M111 93h90q-4 5 -10.5 14.5t-23 40t-29 62.5t-23 79.5t-10.5 93.5q0 151 54 220t182 69q127 0 181 -69t54 -220q0 -73 -24 -145.5t-48 -108.5l-24 -36h90v-102h-205v88q10 17 24 45.5t37.5 100.5t23.5 126q0 121 -21 167.5t-88 46.5q-68 0 -88.5 -46t-20.5 -168
q0 -54 21 -122t42 -109l21 -41v-88h-205v102z" />
    <glyph glyph-name="partialdiff" unicode="&#x2202;" 
d="M169 577l-4 93q85 46 179 46q132 0 191.5 -88t59.5 -277q0 -185 -59 -272.5t-190 -87.5q-232 0 -232 225q0 104 57 162t160 58q32 0 66 -6t52 -12l18 -7q-5 113 -35.5 158t-107.5 45q-32 0 -71 -9t-61 -19zM345 334q-53 0 -78 -32t-25 -86q0 -123 104 -123q61 0 91 52
t30 165q-48 24 -122 24z" />
    <glyph glyph-name="Delta" unicode="&#x2206;" 
d="M83 92l132 568h203l132 -569v-91h-467v92zM330 560h-27l-101 -458h229z" />
    <glyph glyph-name="product" unicode="&#x220f;" 
d="M443 -176v827h-136v-827h-123v827h-57v107h499v-107h-61v-827h-122z" />
    <glyph glyph-name="summation" unicode="&#x2211;" 
d="M345 300l-245 328v130h493v-107h-363v-17l225 -292v-84l-225 -309v-18h363v-107h-493v130z" />
    <glyph glyph-name="minus" unicode="&#x2212;" 
d="M120 197v108h434v-108h-434z" />
    <glyph glyph-name="radical" unicode="&#x221a;" 
d="M104 334v107h155l101 -471h13l178 818h122l-213 -920h-190l-110 466h-56z" />
    <glyph glyph-name="infinity" unicode="&#x221e;" 
d="M230 121q-135 0 -135 170q0 172 133 172q76 0 119 -84q41 84 119 84q65 0 99 -43.5t34 -127.5q0 -171 -135 -171q-74 0 -117 84q-23 -47 -50 -65.5t-67 -18.5zM387 292q26 -51 40 -61q10 -7 21 -7q42 0 42 67q0 69 -42 69q-19 0 -31 -15.5t-30 -52.5zM306 292
q-12 25 -18 36t-17.5 21.5t-24.5 10.5q-42 0 -42 -69q0 -67 42 -67q13 0 24 9.5t17 20.5t19 38z" />
    <glyph glyph-name="integral" unicode="&#x222b;" 
d="M408 -14q0 -182 -145 -182q-17 0 -41 3t-39 6l-15 3l4 98q28 -3 57 -3q32 0 44.5 17t12.5 61v600q0 108 32.5 150t112.5 42q18 0 43.5 -3.5t41.5 -6.5l17 -3l-4 -98q-33 4 -66 4q-31 0 -43 -19.5t-12 -66.5v-602z" />
    <glyph glyph-name="approxequal" unicode="&#x2248;" 
d="M545 413l9 -95q-6 -6 -17 -14.5t-41 -23t-56 -14.5q-29 0 -108 24.5t-97 24.5q-20 0 -47.5 -10.5t-44.5 -20.5l-17 -10l-10 95q7 6 19 15t44.5 23.5t58.5 14.5q28 0 104.5 -24.5t99.5 -24.5q17 0 43 10t43 20zM545 202l9 -95q-6 -6 -17 -14.5t-41 -23t-56 -14.5
q-29 0 -108 24.5t-97 24.5q-20 0 -47.5 -10t-44.5 -20l-17 -11l-10 95q7 6 19 15t44.5 23.5t58.5 14.5q28 0 104.5 -24.5t99.5 -24.5q17 0 43 10t43 20z" />
    <glyph glyph-name="notequal" unicode="&#x2260;" 
d="M117 298v108h228l68 155l94 -37l-52 -118h103v-108h-150l-42 -94h192v-108h-239l-64 -145l-93 37l47 108h-92v108h140l41 94h-181z" />
    <glyph glyph-name="lessequal" unicode="&#x2264;" 
d="M538 395l-288 -62l288 -68v-117l-421 128v104l421 131v-116zM117 20v107h421v-107h-421z" />
    <glyph glyph-name="greaterequal" unicode="&#x2265;" 
d="M417 333l-288 62v116l421 -131v-104l-421 -128v117zM550 127v-107h-421v107h421z" />
    <glyph glyph-name="lozenge" unicode="&#x25ca;" 
d="M275 99l-154 226l154 236h160l154 -236l-154 -226h-160zM365 191l104 134l-104 144h-19l-105 -144l105 -134h19z" />
    <glyph glyph-name="commaaccent" unicode="&#xf6c3;" horiz-adv-x="161" 
d="M-69 -302l95 230h109l-104 -230h-100z" />
    <glyph glyph-name="a.002" horiz-adv-x="521" 
d="M541 337l-19 -80l-24 -106q-12 -52 31 -79l-21 -84q-43 4 -70 18t-48 45q-9 -7 -25 -17.5t-59 -28t-78 -17.5q-60 0 -94.5 38t-34.5 102q0 166 217 178l101 6l6 25q9 35 -9.5 54t-53.5 19q-30 0 -76.5 -4t-77.5 -8l-32 -4l-4 84q106 34 218 34q82 0 126.5 -48t26.5 -127z
M399 229l-76 -5q-51 -4 -77 -22t-26 -60q0 -52 42 -52q24 0 52.5 12.5t45.5 25.5l16 12z" />
    <glyph glyph-name="zero.pnum" horiz-adv-x="507" 
d="M372 509q98 0 144.5 -43t46.5 -135q0 -80 -33 -158t-99 -126q-75 -55 -190 -55q-87 0 -135.5 41.5t-48.5 122.5q0 93 39.5 177.5t112.5 131.5q68 44 163 44zM347 396q-72 0 -114 -66t-42 -148q0 -37 20.5 -57.5t58.5 -20.5q49 0 84 27.5t49 67.5t19.5 66.5t5.5 41.5
q0 89 -81 89z" />
    <glyph glyph-name="one.pnum" horiz-adv-x="339" 
d="M86 375l227 125h122l-124 -500h-131l88 353l-148 -81z" />
    <glyph glyph-name="two.pnum" horiz-adv-x="426" 
d="M415 0h-405l26 109l127 87q180 120 180 164q0 33 -76 33q-30 0 -69 -4t-63 -7.5t-24 -4.5l19 107q106 25 196 25q83 0 122.5 -34t39.5 -84q0 -64 -32.5 -106t-99.5 -88l-119 -83h206z" />
    <glyph glyph-name="three.pnum" horiz-adv-x="433" 
d="M135 486q113 24 193 24q96 0 135.5 -30.5t39.5 -74.5q0 -67 -34 -101t-77 -43q33 -9 51 -30t18 -47q0 -79 -61 -136t-189 -57q-41 0 -91 5.5t-80 11.5l-30 5l38 104q109 -12 177 -12q114 0 114 60q0 34 -83 34h-127l27 107h127q93 0 93 56q0 19 -16.5 26t-60.5 7
q-34 0 -78.5 -3.5t-72.5 -6.5l-27 -3z" />
    <glyph glyph-name="four.pnum" horiz-adv-x="466" 
d="M271 0l22 88h-266l24 92l232 320h142l-225 -304h120l28 114h123l-28 -114h61l-26 -108h-63l-22 -88h-122z" />
    <glyph glyph-name="five.pnum" horiz-adv-x="461" 
d="M166 500h381l-30 -117h-269l-35 -82q52 19 101 19q84 0 130 -30.5t46 -103.5q0 -90 -65.5 -142.5t-188.5 -52.5q-38 0 -93.5 7.5t-92.5 15.5l-36 8l37 107q128 -30 200 -30q50 0 80.5 19t30.5 53q0 23 -19 34t-65 11q-20 0 -48.5 -5.5t-47.5 -10.5l-19 -6l-88 20z" />
    <glyph glyph-name="six.pnum" horiz-adv-x="465" 
d="M546 484l-35 -96q-75 15 -152 15q-66 0 -102 -26.5t-52 -87.5q60 28 127 28q88 0 125.5 -30t37.5 -91q0 -93 -63 -149.5t-197 -56.5q-89 0 -132.5 45.5t-43.5 121.5q0 152 84.5 253t226.5 101q32 0 76 -6.5t72 -13.5zM296 219q-27 0 -55.5 -6.5t-44.5 -12.5l-15 -7
q-3 -21 -3 -29q0 -77 83 -77q61 0 87.5 27t26.5 62q0 22 -18 32.5t-61 10.5z" />
    <glyph glyph-name="seven.pnum" horiz-adv-x="408" 
d="M96 391l29 110h391l-37 -150l-303 -374l-99 56l270 327l8 31h-259z" />
    <glyph glyph-name="eight.pnum" horiz-adv-x="481" 
d="M362 509q92 0 141 -32t49 -80q0 -91 -106 -132q59 -40 59 -95q0 -77 -64 -128.5t-208 -51.5q-91 0 -143 32.5t-52 83.5q0 105 122 159q-53 36 -53 82q0 67 66.5 114.5t188.5 47.5zM262 103q114 0 114 67q0 28 -45 37h-88q-33 -6 -50.5 -23.5t-17.5 -41.5q0 -39 87 -39z
M335 405q-98 0 -98 -59q0 -22 33 -35h88q59 19 59 59q0 35 -82 35z" />
    <glyph glyph-name="nine.pnum" horiz-adv-x="462" 
d="M32 17l34 95q76 -14 153 -14q66 0 102.5 27t51.5 88q-66 -28 -127 -28q-88 0 -125.5 30.5t-37.5 90.5q0 80 66.5 142.5t193.5 62.5q89 0 132 -45.5t43 -122.5q0 -152 -84 -252.5t-226 -100.5q-32 0 -76 7t-72 13zM282 283q27 0 56 6.5t44 12.5l15 7q3 10 3 28
q0 76 -83 76q-61 0 -87.5 -26t-26.5 -61q0 -43 79 -43z" />
    <glyph glyph-name="grave.cap" horiz-adv-x="507" 
d="M352 945l202 -100l-43 -84l-218 79z" />
    <glyph glyph-name="caron.cap" horiz-adv-x="456" 
d="M589 928l-160 -148h-80l-94 148h117l36 -64l63 64h118z" />
    <glyph glyph-name="tilde.cap" horiz-adv-x="450" 
d="M591 932l2 -84q-64 -62 -110 -62q-26 0 -79 23.5t-69 23.5q-11 0 -32 -10.5t-37 -20.5l-16 -11l-4 84q68 62 114 62q32 0 84 -22.5t61 -22.5q11 0 32.5 10t37.5 20z" />
    <glyph glyph-name="ring.cap" horiz-adv-x="332" 
d="M448 732q-13 -54 -54 -83.5t-98 -29.5q-55 0 -82.5 29.5t-13.5 83.5q14 56 54.5 84.5t97.5 28.5q55 0 82.5 -28t13.5 -85zM277 732q-4 -16 6.5 -25.5t31.5 -9.5q48 0 56 35q4 18 -8.5 26.5t-30.5 8.5q-47 0 -55 -35z" />
    <glyph glyph-name="hungarumlaut.cap" horiz-adv-x="683" 
d="M599 744l-85 37l124 182l94 -42zM398 745l-86 36l126 183l93 -42z" />
    <glyph glyph-name="zero.slash" 
d="M412 672q61 0 105 -19l95 146l76 -29l-108 -165q43 -52 43 -144q0 -90 -18.5 -171.5t-56 -150.5t-102.5 -110t-149 -41q-58 0 -105 25l-88 -135l-73 27l103 158q-44 58 -44 141q0 209 92 338.5t230 129.5zM490 443q0 4 -0.5 12t-0.5 11l-229 -349q20 -16 50 -16
q58 0 100.5 56t61 131.5t18.5 154.5zM400 559q-58 0 -100 -54t-60 -129.5t-18 -160.5v-16l226 348q-20 12 -48 12z" />
    <glyph glyph-name="braceleft.cap" horiz-adv-x="294" 
d="M263 250q0 -19 -22.5 -97t-22.5 -98q0 -53 65 -53l-28 -104q-72 1 -113.5 33t-41.5 90q0 23 21.5 103t21.5 99q0 52 -68 85l22 86q62 16 82 35t30 59q11 43 28 144q25 83 77 117t152 38l-20 -103q-47 -4 -69.5 -24.5t-31.5 -58.5l-24 -124q-14 -58 -40.5 -87t-78.5 -47
q32 -18 46.5 -38.5t14.5 -54.5z" />
    <glyph glyph-name="questiondown.cap" horiz-adv-x="382" 
d="M49 155q0 69 32 112.5t122 107.5q56 40 66 80l9 40h112q-1 -45 -8 -83q-10 -53 -96 -115q-64 -47 -87.5 -72.5t-23.5 -57.5q0 -33 19.5 -43.5t60.5 -10.5q30 0 66 3.5t57 6.5l20 3l-12 -94q-89 -27 -158 -27q-179 0 -179 150zM441 700l-35 -155h-121l35 155h121z" />
    <glyph glyph-name="braceright.cap" horiz-adv-x="294" 
d="M188 433q0 19 22.5 97t22.5 98q0 53 -65 53l28 104q72 -1 113.5 -33t41.5 -90q0 -23 -21.5 -103t-21.5 -99q0 -52 68 -85l-22 -86q-62 -16 -82 -35t-30 -59q-11 -43 -28 -144q-25 -83 -77 -117t-152 -38l20 103q47 4 69.5 24.5t31.5 58.5l24 124q14 58 40.5 87t78.5 47
q-32 18 -46.5 38.5t-14.5 54.5z" />
    <glyph glyph-name="bracketright.cap" horiz-adv-x="252" 
d="M207 -92h-221l25 102h96l155 665h-96l25 102h218z" />
    <glyph glyph-name="parenright.cap" horiz-adv-x="234" 
d="M94 -88h-112q9 13 24 37t52.5 97t66.5 143.5t53 166.5t24 177q0 62 -4 124.5t-8 94.5l-3 31h113q28 -94 28 -250q0 -89 -24 -186t-58.5 -171.5t-69 -136t-58.5 -94.5z" />
    <glyph glyph-name="parenleft.cap" horiz-adv-x="232" 
d="M299 778h112q-9 -13 -24 -37t-52.5 -97t-66.5 -143.5t-53 -166.5t-24 -177q0 -62 3.5 -124.5t7.5 -94.5l4 -31h-113q-28 94 -28 250q0 89 24 186t58.5 171.5t69 136t58.5 94.5z" />
    <glyph glyph-name="bracketleft.cap" horiz-adv-x="253" 
d="M203 777h221l-25 -102h-96l-155 -665h96l-25 -102h-218z" />
    <glyph glyph-name="endash.cap" horiz-adv-x="544" 
d="M91 347h500v-102h-500v102z" />
    <glyph glyph-name="emdash.cap" horiz-adv-x="1044" 
d="M91 347h1000v-102h-1000v102z" />
    <glyph glyph-name="at.cap" horiz-adv-x="907" 
d="M631 808q100 0 174 -22.5t117 -61.5t63.5 -94t19.5 -117.5t-19 -134.5q-44 -169 -100.5 -237t-149.5 -68q-85 0 -109 47q-34 -17 -91.5 -33t-98.5 -16q-49 0 -81 23.5t-42.5 60t-12.5 80t8 83.5q53 277 252 277q51 0 232 -32q-12 -50 -41.5 -184t-31.5 -158q-2 -19 9 -27
t34 -8q34 0 60 44.5t55 159.5q14 57 17 100t-8.5 86t-41.5 70.5t-88.5 44.5t-143.5 17q-173 0 -271 -89t-141 -267q-14 -60 -15 -113t15.5 -101.5t50 -83.5t92 -55.5t138.5 -20.5l137 9l-23 -100q-96 -10 -141 -10q-79 0 -144 18.5t-108.5 52t-73.5 78t-42.5 98t-11.5 111
t15 117.5q58 244 188 350t353 106zM468 174q58 -1 132 41q4 47 56 264q-67 14 -96 14q-53 0 -83 -46.5t-48 -128.5q-15 -59 -5 -101t44 -43z" />
    <glyph glyph-name="periodcentered.cap" horiz-adv-x="156" 
d="M77 255l35 156h121l-35 -156h-121z" />
    <glyph glyph-name="zero.dnom" horiz-adv-x="280" 
d="M196 223q63 0 85 -38.5t-1 -130.5q-27 -108 -74 -142q-33 -23 -93 -23q-65 0 -86.5 37t0.5 129q27 107 77 144q32 24 92 24zM175 137q-15 0 -25.5 -16.5t-23.5 -66.5q-8 -34 -9 -51.5t3 -22.5t15 -5q15 0 24.5 15t21.5 65q9 34 11 52t-2 24t-15 6z" />
    <glyph glyph-name="one.dnom" horiz-adv-x="280" 
d="M61 138l123 74h87l-77 -312h-96l51 207l-61 -36z" />
    <glyph glyph-name="two.dnom" horiz-adv-x="280" 
d="M230 -100h-226l20 82l93 65q56 38 63 64q3 11 -6 15.5t-29 4.5l-80 -7l19 89q72 10 116 10q59 0 78.5 -23t5.5 -75q-14 -59 -83 -103l-53 -36h102z" />
    <glyph glyph-name="three.dnom" horiz-adv-x="280" 
d="M77 213q68 10 109 10q59 0 82.5 -21.5t12.5 -66.5q-12 -53 -49 -71q35 -16 19 -74q-24 -101 -140 -101q-22 0 -51 2.5t-47 4.5l-18 2l26 84q59 -7 94 -7q34 0 40 22q3 13 -3.5 17t-22.5 4h-66l19 78h64q26 0 30 21q3 11 -3.5 15.5t-22.5 4.5l-88 -6z" />
    <glyph glyph-name="four.dnom" horiz-adv-x="280" 
d="M133 -100l9 38h-137l20 80l98 194h106l-104 -188h39l34 90h83l-23 -90h15l-21 -86h-15l-9 -38h-95z" />
    <glyph glyph-name="five.dnom" horiz-adv-x="280" 
d="M91 212h202l-19 -82h-127l-12 -36q28 8 48 8q94 0 70 -99q-15 -59 -50 -84.5t-94 -25.5q-23 0 -51 3.5t-44 6.5l-17 3l28 78q52 -10 90 -10q31 0 37 24q5 23 -15 23l-34 -7l-69 10z" />
    <glyph glyph-name="six.dnom" horiz-adv-x="280" 
d="M301 211l-24 -79q-61 7 -91 7q-39 0 -48 -38q24 7 44 7q104 0 78 -104q-29 -115 -145 -115q-128 0 -89 157q23 90 64 133.5t114 43.5q16 0 40 -3t40 -6zM146 30q-7 0 -14.5 -2.5t-11.5 -5.5l-3 -2q-12 -47 14 -47t32 29q7 28 -17 28z" />
    <glyph glyph-name="seven.dnom" horiz-adv-x="280" 
d="M54 118l23 94h222l-23 -95l-154 -227l-109 20l145 193l3 15h-107z" />
    <glyph glyph-name="eight.dnom" horiz-adv-x="280" 
d="M195 223q61 0 85.5 -23t13.5 -66q-7 -29 -23 -48.5t-26 -23.5q5 -2 10.5 -8.5t10 -22t-2.5 -38.5q-14 -57 -51.5 -80.5t-99.5 -23.5q-63 0 -89 23.5t-12 79.5q7 29 24.5 47.5t28.5 23.5q-4 2 -8 9t-7.5 23.5t3.5 39.5q22 88 143 88zM131 -33q27 0 35 27q4 18 -12 31h-17
q-22 -12 -26 -31q-8 -27 20 -27zM175 145q-25 0 -31 -23q-4 -17 10 -30h17q19 11 24 30q6 23 -20 23z" />
    <glyph glyph-name="nine.dnom" horiz-adv-x="280" 
d="M3 -97l26 78q46 -6 84 -6q40 0 49 35l-6 -1q-6 -1 -17 -3t-20 -2q-102 0 -76 104q14 55 52.5 85t93.5 30q129 0 86 -166q-22 -90 -60.5 -129t-110.5 -39q-20 0 -45.5 3.5t-40.5 7.5zM156 79l29 8q13 52 -14 52q-23 0 -31 -31q-6 -29 16 -29z" />
    <glyph glyph-name="zero.numr" horiz-adv-x="280" 
d="M303 701q63 0 85 -38.5t-1 -130.5q-27 -108 -74 -142q-33 -23 -93 -23q-65 0 -86.5 37t0.5 129q27 107 77 144q32 24 92 24zM282 615q-15 0 -25.5 -16.5t-23.5 -66.5q-8 -34 -9 -51.5t3 -22.5t15 -5q15 0 24.5 15t21.5 65q9 34 11 52t-2 24t-15 6z" />
    <glyph glyph-name="one.numr" horiz-adv-x="280" 
d="M166 616l123 74h87l-77 -312h-96l51 207l-61 -36z" />
    <glyph glyph-name="two.numr" horiz-adv-x="280" 
d="M337 378h-226l20 82l93 65q56 38 63 64q3 11 -6 15.5t-29 4.5l-80 -7l19 89q72 10 116 10q59 0 78.5 -23t5.5 -75q-14 -59 -83 -103l-53 -36h102z" />
    <glyph glyph-name="three.numr" horiz-adv-x="280" 
d="M191 691q68 10 109 10q59 0 82.5 -21.5t12.5 -66.5q-12 -53 -49 -71q35 -16 19 -74q-24 -101 -140 -101q-22 0 -51 2.5t-47 4.5l-18 2l26 84q59 -7 94 -7q34 0 40 22q3 13 -3.5 17t-22.5 4h-66l19 78h64q26 0 30 21q3 11 -3.5 15.5t-22.5 4.5l-88 -6z" />
    <glyph glyph-name="four.numr" horiz-adv-x="280" 
d="M239 378l9 38h-137l20 80l98 194h106l-104 -188h39l34 90h83l-23 -90h15l-21 -86h-15l-9 -38h-95z" />
    <glyph glyph-name="five.numr" horiz-adv-x="280" 
d="M206 690h202l-19 -82h-127l-12 -36q28 8 48 8q94 0 70 -99q-15 -59 -50 -84.5t-94 -25.5q-23 0 -51 3.5t-45 6.5l-16 3l28 78q52 -10 90 -10q31 0 37 24q5 23 -15 23l-34 -7l-69 10z" />
    <glyph glyph-name="six.numr" horiz-adv-x="280" 
d="M412 689l-24 -79q-61 7 -91 7q-39 0 -48 -38q24 7 44 7q104 0 78 -104q-29 -115 -145 -115q-128 0 -89 157q23 90 64 133.5t114 43.5q16 0 40 -3t41 -6zM257 508q-7 0 -14.5 -2.5t-10.5 -5.5l-4 -2q-12 -47 14 -47t32 29q7 28 -17 28z" />
    <glyph glyph-name="seven.numr" horiz-adv-x="280" 
d="M170 596l23 94h222l-23 -95l-154 -227l-109 20l145 193l3 15h-107z" />
    <glyph glyph-name="eight.numr" horiz-adv-x="280" 
d="M303 701q61 0 85.5 -23t13.5 -66q-7 -29 -23 -48.5t-26 -23.5q5 -2 10.5 -8.5t10 -22t-2.5 -38.5q-14 -57 -51.5 -80.5t-99.5 -23.5q-63 0 -89 23.5t-12 79.5q7 29 24.5 47.5t28.5 23.5q-4 2 -8 9t-7.5 23.5t3.5 39.5q22 88 143 88zM239 445q27 0 35 27q4 18 -12 31h-17
q-22 -12 -26 -31q-8 -27 20 -27zM283 623q-25 0 -31 -23q-4 -17 10 -30h17q19 11 24 30q6 23 -20 23z" />
    <glyph glyph-name="nine.numr" horiz-adv-x="280" 
d="M115 381l26 78q46 -6 84 -6q40 0 49 35l-6 -1q-6 -1 -17 -3t-20 -2q-102 0 -76 104q14 55 52.5 85t93.5 30q129 0 86 -166q-22 -90 -60.5 -129t-110.5 -39q-20 0 -45.5 3.5t-40.5 7.5zM268 557l29 8q13 52 -14 52q-23 0 -31 -31q-6 -29 16 -29z" />
    <glyph glyph-name="exclamdown.cap" horiz-adv-x="169" 
d="M241 432l-97 -449h-127l113 449h111zM302 683l-33 -142h-121l33 142h121z" />
    <glyph glyph-name="hyphen.cap" horiz-adv-x="284" 
d="M71 242l27 107h252l-27 -107h-252z" />
    <glyph glyph-name="I.001" horiz-adv-x="349" 
d="M194 589l22 94h232l-22 -94h-55l-113 -495h55l-21 -94h-232l21 94h54l114 495h-55z" />
    <glyph glyph-name="acute.cap.001" horiz-adv-x="522" 
d="M305 770l-18 94l264 92l18 -115z" />
    <glyph glyph-name="circumflex.cap.001" horiz-adv-x="456" 
d="M221 783l173 148h70l96 -148h-109l-33 61l-70 -61h-127z" />
    <glyph glyph-name="dieresis.cap" horiz-adv-x="404" 
d="M263 794l29 125h98l-29 -125h-98zM459 794l29 125h99l-31 -125h-97z" />
    <glyph glyph-name="macron.cap" horiz-adv-x="456" 
d="M253 810l22 97h318l-22 -97h-318z" />
    <glyph glyph-name="breve.cap" horiz-adv-x="456" 
d="M267 926h108q-7 -46 41 -46q46 0 63 46h108q-23 -69 -67.5 -104.5t-123.5 -35.5q-71 0 -104.5 36t-24.5 104z" />
    <glyph glyph-name="dotaccent.cap" horiz-adv-x="247" 
d="M253 776l29 126h105l-31 -126h-103z" />
    <glyph glyph-name="Tcedilla" horiz-adv-x="459" 
d="M338 -124q-24 -101 -124 -101q-18 0 -39 2.5t-33 4.5l-11 3l18 74q32 -2 50 -2q38 0 44 27q4 15 -4 19.5t-27 4.5h-27l21 92h-39l133 576h-158l25 107h440l-25 -107h-159l-133 -576h-36l-9 -36h6q107 0 87 -88z" />
    <glyph glyph-name="tcedilla" horiz-adv-x="326" 
d="M301 -124q-24 -101 -124 -101q-18 0 -39 2.5t-32 4.5l-12 3l18 74q32 -2 50 -2q38 0 44 27q4 15 -4 19.5t-27 4.5h-27l19 87q-65 23 -65 98q0 37 16 103l47 202h-57l27 102h54l31 133h119l-31 -133h114l-25 -102h-113l-49 -213q-9 -43 -9 -62q0 -33 34 -33l71 5l-10 -86
q-52 -20 -107 -21l-6 -24h6q107 0 87 -88z" />
    <glyph glyph-name="a.alt" horiz-adv-x="521" 
d="M220 -12q-71 0 -104.5 47t-33.5 127q0 56 15 114.5t44 112.5t80 88.5t115 34.5q31 0 90.5 -8t103.5 -16l44 -8l-75 -323l-27 -154l-118 -5q10 68 14 85l-8 -10.5t-21 -22.5t-32.5 -28.5t-40.5 -23t-46 -10.5zM339 410q-42 0 -74.5 -42t-47 -97.5t-14.5 -108.5
q0 -36 12.5 -54t44.5 -18q21 0 53 25t53 50l22 25l49 206q-67 14 -98 14z" />
    <glyph glyph-name="a.001" horiz-adv-x="521" 
d="M541 337l-18 -76l-1 -4l-23 -100l-27 -154l-118 -5q7 50 11 68q-7 -9 -20.5 -22t-51.5 -34.5t-73 -21.5q-73 0 -105.5 34t-32.5 106q0 89 58 135t150 46q38 0 122 -19l11 47q9 35 -9.5 54t-53.5 19q-30 0 -76.5 -4t-77.5 -8l-32 -4l-4 84q106 34 218 34q82 0 126.5 -48
t26.5 -127zM297 224q-94 0 -94 -82q0 -52 51 -52q27 0 59 17t50 35l18 17l13 51q-66 14 -97 14z" />
    </font>
</defs>
</svg>
